<?xml version="1.0" encoding="UTF-8" standalone="no"?>
<svg
   xmlns:dc="http://purl.org/dc/elements/1.1/"
   xmlns:cc="http://creativecommons.org/ns#"
   xmlns:rdf="http://www.w3.org/1999/02/22-rdf-syntax-ns#"
   xmlns:svg="http://www.w3.org/2000/svg"
   xmlns="http://www.w3.org/2000/svg"
   xmlns:sodipodi="http://sodipodi.sourceforge.net/DTD/sodipodi-0.dtd"
   xmlns:inkscape="http://www.inkscape.org/namespaces/inkscape"
   sodipodi:docname="csv.svg"
   inkscape:version="1.0 (4035a4fb49, 2020-05-01)"
   id="svg8"
   version="1.1"
   viewBox="0 0 57 70"
   height="70mm"
   width="57mm">
  <defs
     id="defs2">
    <inkscape:path-effect
       hide_knots="false"
       only_selected="false"
       apply_with_radius="true"
       apply_no_radius="true"
       use_knot_distance="true"
       flexible="false"
       chamfer_steps="5"
       radius="10"
       mode="F"
       method="arc"
       unit="px"
       satellites_param="F,0,0,1,0,2.6458333,0,5 @ F,0,0,1,0,2.6458333,0,5 @ F,0,0,1,0,2.6458333,0,5 @ F,0,0,1,0,2.6458333,0,5 @ F,0,0,1,0,2.6458333,0,5 @ F,0,0,1,0,2.6458333,0,5 @ F,0,0,1,0,2.6458333,0,5 @ F,0,0,1,0,2.6458333,0,5 @ F,0,0,1,0,2.6458333,0,5 @ F,0,0,1,0,2.6458333,0,5 @ F,0,0,1,0,2.6458333,0,5 @ F,0,0,1,0,2.6458333,0,5 @ F,0,0,1,0,2.6458333,0,5 @ F,0,0,1,0,2.6458333,0,5 @ F,0,0,1,0,2.6458333,0,5 @ F,0,0,1,0,2.6458333,0,5 @ F,0,0,1,0,2.6458333,0,5 @ F,0,0,1,0,2.6458333,0,5 @ F,0,0,1,0,2.6458333,0,5 @ F,0,0,1,0,2.6458333,0,5 | F,0,0,1,0,2.6458333,0,5 @ F,0,0,1,0,2.6458333,0,5 @ F,0,0,1,0,2.6458333,0,5 @ F,0,0,1,0,2.6458333,0,5 @ F,0,0,1,0,2.6458333,0,5 @ F,0,0,1,0,2.6458333,0,5 @ F,0,0,1,0,2.6458333,0,5 @ F,0,0,1,0,2.6458333,0,5 @ F,0,0,1,0,2.6458333,0,5 @ F,0,0,1,0,2.6458333,0,5 @ F,0,0,1,0,2.6458333,0,5 @ F,0,0,1,0,2.6458333,0,5 @ F,0,0,1,0,2.6458333,0,5 @ F,0,0,1,0,2.6458333,0,5 @ F,0,0,1,0,2.6458333,0,5 @ F,0,0,1,0,2.6458333,0,5 @ F,0,0,1,0,2.6458333,0,5 @ F,0,0,1,0,2.6458333,0,5 @ F,0,0,1,0,2.6458333,0,5 @ F,0,0,1,0,2.6458333,0,5 @ F,0,0,1,0,2.6458333,0,5 @ F,0,0,1,0,2.6458333,0,5 @ F,0,0,1,0,2.6458333,0,5 @ F,0,0,1,0,2.6458333,0,5 @ F,0,0,1,0,2.6458333,0,5 @ F,0,0,1,0,2.6458333,0,5 @ F,0,0,1,0,2.6458333,0,5 @ F,0,0,1,0,2.6458333,0,5 @ F,0,0,1,0,2.6458333,0,5 @ F,0,0,1,0,2.6458333,0,5 | F,0,0,1,0,2.6458333,0,5 @ F,0,0,1,0,2.6458333,0,5 @ F,0,0,1,0,2.6458333,0,5 @ F,0,0,1,0,2.6458333,0,5 @ F,0,0,1,0,2.6458333,0,5 @ F,0,0,1,0,2.6458333,0,5 @ F,0,0,1,0,2.6458333,0,5"
       lpeversion="1"
       is_visible="true"
       id="path-effect939"
       effect="fillet_chamfer" />
  </defs>
  <sodipodi:namedview
     inkscape:window-maximized="1"
     inkscape:window-y="-9"
     inkscape:window-x="-9"
     inkscape:window-height="1001"
     inkscape:window-width="1920"
     inkscape:snap-intersection-paths="true"
     showgrid="false"
     inkscape:document-rotation="0"
     inkscape:current-layer="layer1"
     inkscape:document-units="mm"
     inkscape:cy="129.93653"
     inkscape:cx="-14.010719"
     inkscape:zoom="1.979899"
     inkscape:pageshadow="2"
     inkscape:pageopacity="0.0"
     borderopacity="1.0"
     bordercolor="#666666"
     pagecolor="#ffffff"
     id="base" />
  <metadata
     id="metadata5">
    <rdf:RDF>
      <cc:Work
         rdf:about="">
        <dc:format>image/svg+xml</dc:format>
        <dc:type
           rdf:resource="http://purl.org/dc/dcmitype/StillImage" />
        <dc:title></dc:title>
      </cc:Work>
    </rdf:RDF>
  </metadata>
  <g
     id="layer1"
     inkscape:groupmode="layer"
     inkscape:label="Layer 1">
    <path
       d="m 5.6981613,0.66813486 c -2.7124421,0 -4.89634203,2.18389994 -4.89634203,4.89634204 V 64.460104 c 0,2.71244 2.18389993,4.896342 4.89634203,4.896342 H 50.829772 c 2.71244,0 4.895824,-2.183902 4.895824,-4.896342 V 13.897817 L 43.030247,0.66813486 Z"
       style="fill:#222641;fill-opacity:1;stroke-width:0.264999;stroke-linejoin:round"
       id="rect833" />
    <path
       d="M 43.030247,0.66813486 V 9.0019912 c 0,0.3390556 0.03421,0.66979 0.09922,0.9890892 0.06501,0.3192966 0.161187,0.6272796 0.284737,0.9203556 0.123552,0.293079 0.274473,0.571082 0.450104,0.831474 0.175627,0.260393 0.375618,0.502743 0.59686,0.723988 0.221245,0.221242 0.463595,0.421751 0.723987,0.597379 0.260393,0.175627 0.538914,0.326551 0.831991,0.450101 0.293078,0.12355 0.601061,0.219731 0.920358,0.284736 0.319296,0.06501 0.650034,0.0987 0.989086,0.0987 h 7.799007 z"
       style="fill:#626262;fill-opacity:1;stroke-width:0.264999;stroke-linejoin:round"
       id="path851" />
    <path
       sodipodi:nodetypes="ccccsc"
       id="path839"
       d="m 38.754075,0.66818 16.971618,17.50615 3.54132,-6.04697 -2.93996,-14.766646 c 0,0 -16.036174,0.701582 -16.036174,0.835218 0,0.133633 -1.536804,2.472248 -1.536804,2.472248 z"
       style="fill:none;stroke:none;stroke-width:0.264583px;stroke-linecap:butt;stroke-linejoin:miter;stroke-opacity:1" />
    <path
       id="path857"
       style="fill:#364160;fill-opacity:1;stroke-width:0.264999;stroke-linejoin:round"
       d="M 43.030247,0.66813486 V 9.0019912 c 0,0.3390556 0.03421,0.66979 0.09922,0.9890892 0.06501,0.3192966 0.161187,0.6272796 0.284737,0.9203556 0.123552,0.293079 0.274473,0.571082 0.450104,0.831474 0.175627,0.260393 0.375618,0.502743 0.59686,0.723988 0.221245,0.221242 0.463595,0.421751 0.723987,0.597379 0.260393,0.175627 0.538914,0.326551 0.831991,0.450101 0.293078,0.12355 0.601061,0.219731 0.920358,0.284736 0.319296,0.06501 0.650034,0.0987 0.989086,0.0987 h 7.799007 z" />
    <path
       transform="scale(0.26458333)"
       d="M 78.269531 80.304688 A 25.189245 25.189245 0 0 0 75.515625 80.447266 C 73.631688 80.648633 71.8468 81.069953 70.160156 81.712891 A 20.126299 20.126299 0 0 0 65.513672 84.214844 C 64.200194 85.166765 63.035928 86.272038 62.019531 87.529297 A 18.346193 18.346193 0 0 0 59.318359 92.058594 C 58.681314 93.602128 58.25742 95.241542 58.046875 96.976562 A 21.951556 21.951556 0 0 0 58.046875 102.25586 C 58.258187 104.00363 58.68421 105.65752 59.326172 107.2207 A 17.978743 17.978743 0 0 0 62.029297 111.74805 C 63.045418 112.99446 64.209044 114.09636 65.521484 115.05469 A 19.359632 19.359632 0 0 0 70.167969 117.55078 C 71.839992 118.17517 73.605333 118.58751 75.462891 118.78516 A 25.275987 25.275987 0 0 0 80.744141 118.78906 C 82.018135 118.6569 83.240525 118.42625 84.410156 118.09766 A 18.92195 18.92195 0 0 0 89.248047 115.99414 C 90.120643 115.4549 90.935075 114.84575 91.691406 114.16602 A 2.508127 2.508127 0 0 0 91.570312 110.45898 L 89.914062 108.92969 A 2.9402547 2.9402547 0 0 0 86.078125 108.98047 C 84.618593 110.15081 82.994614 110.9226 81.208984 111.29688 A 13.535709 13.535709 0 0 1 75.951172 111.32617 C 75.573267 111.25567 75.201828 111.16875 74.839844 111.06641 A 11.19418 11.19418 0 0 1 70.263672 108.51172 C 70.063531 108.32597 69.8713 108.13373 69.685547 107.93359 A 11.194133 11.194133 0 0 1 67.130859 103.35742 C 67.028517 102.99544 66.941599 102.624 66.871094 102.24609 A 14.354188 14.354188 0 0 1 66.871094 96.984375 C 66.941664 96.605835 67.028373 96.233678 67.130859 95.871094 A 11.047402 11.047402 0 0 1 69.691406 91.300781 C 69.870601 91.110099 70.055483 90.924753 70.248047 90.748047 A 11.605742 11.605742 0 0 1 74.826172 88.183594 C 75.192837 88.075624 75.568153 87.984254 75.951172 87.910156 A 13.387901 13.387901 0 0 1 81.210938 87.929688 C 82.991421 88.298556 84.608199 89.058139 86.064453 90.208984 A 2.9617416 2.9617416 0 0 0 89.914062 90.246094 L 91.570312 88.716797 A 2.4891126 2.4891126 0 0 0 91.675781 85.023438 C 90.924392 84.358573 90.1159 83.761762 89.25 83.230469 A 19.190191 19.190191 0 0 0 84.412109 81.125 C 83.261398 80.800859 82.056267 80.572358 80.796875 80.441406 A 25.189245 25.189245 0 0 0 78.269531 80.304688 z M 112.43359 80.306641 A 29.63238 29.63238 0 0 0 109.89062 80.421875 L 109.89062 80.419922 C 108.62425 80.531959 107.44199 80.729574 106.34375 81.009766 A 15.314974 15.314974 0 0 0 101.52148 83.123047 C 101.08067 83.421602 100.67007 83.738316 100.29102 84.076172 A 10.433918 10.433918 0 0 0 97.375 88.425781 C 97.273326 88.71731 97.184145 89.013141 97.109375 89.314453 A 11.261743 11.261743 0 0 0 97.076172 94.560547 C 97.162312 94.93355 97.268379 95.290936 97.394531 95.632812 A 8.9898051 8.9898051 0 0 0 100.66602 99.691406 C 100.79524 99.785446 100.92587 99.876551 101.05859 99.964844 A 17.971453 17.971453 0 0 0 105.92188 101.99805 C 106.52247 102.17904 107.15927 102.36002 107.83398 102.54102 A 2613.0683 2613.0683 0 0 0 112.96875 103.82422 A 11.57071 11.57071 0 0 1 117.12695 105.54102 A 3.1779746 3.1779746 0 0 1 118.50586 107.98828 A 6.0313725 6.0313725 0 0 1 114.25586 111.76758 C 114.15427 111.78508 114.05068 111.80286 113.94531 111.81836 A 19.354031 19.354031 0 0 1 108.66797 111.81836 C 108.19612 111.75766 107.7238 111.68117 107.25195 111.58789 A 22.84693 22.84693 0 0 1 102.22461 109.97266 C 101.88457 109.81802 101.55438 109.65479 101.23242 109.48633 A 2.3955955 2.3955955 0 0 0 97.898438 110.50586 L 97.140625 112.18945 A 2.9097868 2.9097868 0 0 0 98.287109 116.01172 C 98.872417 116.31847 99.499255 116.6083 100.16797 116.87891 A 27.146972 27.146972 0 0 0 105.24023 118.35742 C 106.35016 118.57044 107.47402 118.7219 108.61133 118.81445 A 31.23149 31.23149 0 0 0 113.89648 118.81055 C 115.16286 118.69851 116.34512 118.50285 117.44336 118.22266 A 15.85487 15.85487 0 0 0 122.27734 116.12891 C 122.72511 115.83325 123.14149 115.51879 123.52539 115.18555 A 10.416713 10.416713 0 0 0 126.48828 110.86914 C 126.59585 110.5725 126.68862 110.27186 126.76758 109.9668 A 10.835286 10.835286 0 0 0 126.80664 104.72461 C 126.71914 104.35999 126.61166 104.01112 126.48438 103.67773 A 9.0584543 9.0584543 0 0 0 123.16602 99.652344 C 123.057 99.574194 122.94572 99.49799 122.83398 99.423828 A 18.062588 18.062588 0 0 0 117.9707 97.392578 C 117.37001 97.211307 116.73148 97.028917 116.05664 96.847656 A 3633.2315 3633.2315 0 0 0 110.91992 95.580078 C 110.54361 95.479587 110.18754 95.379781 109.84961 95.279297 A 5.5978119 5.5978119 0 0 1 105.55469 92.548828 A 3.4459403 3.4459403 0 0 1 106.30469 89.09375 A 5.7539183 5.7539183 0 0 1 109.55273 87.488281 C 109.64813 87.469861 109.74508 87.451887 109.84375 87.435547 A 17.218527 17.218527 0 0 1 115.11719 87.433594 C 116.89909 87.690786 118.68097 88.20895 120.46289 88.988281 A 2.5057077 2.5057077 0 0 0 123.82227 87.722656 L 124.49609 86.066406 A 2.8086873 2.8086873 0 0 0 123.15234 82.386719 C 122.79368 82.22955 122.42479 82.079769 122.04688 81.939453 A 26.007624 26.007624 0 0 0 116.92578 80.640625 C 116.34541 80.551705 115.76284 80.480917 115.17578 80.427734 A 29.63238 29.63238 0 0 0 112.43359 80.306641 z M 130.78906 80.947266 A 1.7401422 1.7401422 0 0 0 129.19141 83.376953 L 143.19922 115.85156 A 4.0229089 4.0229089 0 0 0 146.89453 118.28125 L 150.13477 118.28125 A 4.0283222 4.0283222 0 0 0 153.83203 115.85352 L 167.89062 83.375 A 1.7378038 1.7378038 0 0 0 166.29492 80.947266 L 163.00195 80.947266 A 4.0250234 4.0250234 0 0 0 159.30664 83.376953 L 149.88477 105.18555 A 1.1350415 1.1350415 0 0 1 147.79883 105.18164 L 138.51172 83.380859 A 4.0031398 4.0031398 0 0 0 134.82812 80.947266 L 130.78906 80.947266 z M 49.878906 108.36133 C 48.421135 108.36133 47.194758 108.84078 46.199219 109.80078 C 45.203657 110.72522 44.707031 111.95157 44.707031 113.48047 C 44.707031 114.9738 45.203657 116.21928 46.199219 117.21484 C 47.194758 118.21041 48.421135 118.70703 49.878906 118.70703 C 51.336685 118.70703 52.564997 118.21041 53.560547 117.21484 C 54.556108 116.21928 55.052734 114.9738 55.052734 113.48047 C 55.052734 111.95157 54.556108 110.72522 53.560547 109.80078 C 52.564997 108.84078 51.336685 108.36133 49.878906 108.36133 z M 51.109375 134.70898 C 48.240445 134.70898 45.931641 137.01975 45.931641 139.88867 C 45.931641 142.7576 48.240445 145.06641 51.109375 145.06641 L 162.53906 145.06641 C 165.40799 145.06641 167.7168 142.7576 167.7168 139.88867 C 167.7168 137.01975 165.40799 134.70898 162.53906 134.70898 L 51.109375 134.70898 z M 51.109375 155.42383 C 48.240445 155.42383 45.931641 157.73459 45.931641 160.60352 C 45.931641 163.47244 48.240445 165.78125 51.109375 165.78125 L 113.60938 165.78125 C 116.47831 165.78125 118.78906 163.47244 118.78906 160.60352 C 118.78906 157.73459 116.47831 155.42383 113.60938 155.42383 L 51.109375 155.42383 z M 51.109375 176.13867 C 48.240445 176.13867 45.931641 178.44748 45.931641 181.31641 C 45.931641 184.18533 48.240445 186.49609 51.109375 186.49609 L 137.53906 186.49609 C 140.40798 186.49609 142.7168 184.18533 142.7168 181.31641 C 142.7168 178.44748 140.40798 176.13867 137.53906 176.13867 L 51.109375 176.13867 z M 51.109375 196.85352 C 48.240445 196.85352 45.931641 199.16232 45.931641 202.03125 C 45.931641 204.90018 48.240445 207.20898 51.109375 207.20898 L 121.82422 207.20898 C 124.69313 207.20898 127.00195 204.90018 127.00195 202.03125 C 127.00195 199.16232 124.69313 196.85352 121.82422 196.85352 L 51.109375 196.85352 z "
       style="font-style:normal;font-variant:normal;font-weight:bold;font-stretch:normal;font-size:14.1111px;line-height:1.25;font-family:Montserrat;-inkscape-font-specification:'Montserrat, Bold';font-variant-ligatures:normal;font-variant-caps:normal;font-variant-numeric:normal;font-variant-east-asian:normal;fill:#364160;fill-opacity:1;stroke:none;stroke-width:0.999999"
       id="path936" />
  </g>
</svg>
