<?xml version="1.0" encoding="UTF-8" standalone="no"?>
<svg
   xmlns:dc="http://purl.org/dc/elements/1.1/"
   xmlns:cc="http://creativecommons.org/ns#"
   xmlns:rdf="http://www.w3.org/1999/02/22-rdf-syntax-ns#"
   xmlns:svg="http://www.w3.org/2000/svg"
   xmlns="http://www.w3.org/2000/svg"
   xmlns:sodipodi="http://sodipodi.sourceforge.net/DTD/sodipodi-0.dtd"
   xmlns:inkscape="http://www.inkscape.org/namespaces/inkscape"
   width="280mm"
   height="151mm"
   viewBox="0 0 280 151"
   version="1.1"
   id="svg8"
   inkscape:version="1.0 (4035a4fb49, 2020-05-01)"
   sodipodi:docname="background logo.svg">
  <defs
     id="defs2">
    <inkscape:path-effect
       update_on_knot_move="true"
       attempt_force_join="true"
       miter_limit="1.3"
       offset="1.5"
       unit="mm"
       linejoin_type="miter"
       lpeversion="1"
       is_visible="true"
       id="path-effect899"
       effect="offset" />
    <inkscape:path-effect
       effect="offset"
       id="path-effect1053"
       is_visible="true"
       lpeversion="1"
       linejoin_type="miter"
       unit="mm"
       offset="1.5"
       miter_limit="4"
       attempt_force_join="true"
       update_on_knot_move="true" />
  </defs>
  <sodipodi:namedview
     id="base"
     pagecolor="#ffffff"
     bordercolor="#666666"
     borderopacity="1.0"
     inkscape:pageopacity="0.0"
     inkscape:pageshadow="2"
     inkscape:zoom="0.5"
     inkscape:cx="780.868"
     inkscape:cy="157.70498"
     inkscape:document-units="mm"
     inkscape:current-layer="layer1"
     inkscape:document-rotation="0"
     showgrid="false"
     showborder="true"
     inkscape:snap-global="false"
     inkscape:window-width="1920"
     inkscape:window-height="1001"
     inkscape:window-x="-9"
     inkscape:window-y="-9"
     inkscape:window-maximized="1" />
  <metadata
     id="metadata5">
    <rdf:RDF>
      <cc:Work
         rdf:about="">
        <dc:format>image/svg+xml</dc:format>
        <dc:type
           rdf:resource="http://purl.org/dc/dcmitype/StillImage" />
        <dc:title></dc:title>
      </cc:Work>
    </rdf:RDF>
  </metadata>
  <g
     inkscape:label="Layer 1"
     inkscape:groupmode="layer"
     id="layer1">
    <path
       transform="scale(0.26458333)"
       d="M 502.00195 11.242188 C 398.50153 11.242188 308.30906 68.680864 261.55859 153.38281 L 234.75 124.18945 L 177.92578 124.18945 L 177.92578 146.85742 L 202.09961 146.85742 L 202.09961 251.54492 L 177.92578 251.54492 L 177.92578 274.21289 L 227.80664 274.21289 C 227.64946 278.02212 227.54883 281.84583 227.54883 285.69336 C 227.54883 320.84029 234.1966 354.44198 246.26367 385.33984 L 246.26367 407.07617 C 238.7608 412.34262 231.1293 417.91772 224.04688 423.2832 L 174.93555 316.51758 L 160.69336 316.51758 L 111.40625 423.66602 L 131.4375 423.66602 L 143.62305 396.70312 L 191.88867 396.70312 L 204.20508 423.66602 L 223.54297 423.66602 C 208.1681 435.33497 195.63902 445.81535 193.82227 449.10742 C 191.71452 452.92645 195.05689 463.11218 206.75977 488.54492 C 215.43855 507.40374 225.31829 527.46531 228.7168 533.125 L 228.71875 533.11719 C 233.55528 541.17348 236.00398 542.83247 239.99219 540.76367 C 242.7944 539.31022 258.3855 524.29021 274.64062 507.38477 C 354.259 424.58098 369.49234 408.75842 376.95312 408.24219 C 380.47228 411.79139 384.49671 414.82867 389.03125 417.3418 L 389.04688 417.3457 L 389.05859 417.34961 C 397.64039 422.04915 407.13208 424.3457 417.51172 424.3457 C 424.78319 424.3457 431.70141 423.20134 438.2793 420.875 C 438.27174 420.87704 438.26745 420.88294 438.26367 420.88672 L 438.29102 420.875 C 444.99934 418.53354 450.8239 415.07537 455.65625 410.45312 L 457.4043 408.78125 L 457.4043 364.83008 L 439.35742 364.83008 L 439.35742 400.20312 C 433.87487 403.99149 427.19228 406.36511 418.87891 406.55664 C 420.832 405.14994 421.74284 403.57078 421.05469 401.92383 C 419.89913 399.15914 418.42774 388.4797 417.78711 378.19141 C 416.6709 360.27334 417.04041 359.07682 426.55469 349.80469 L 436.48828 340.125 L 440.8418 346.86914 C 446.25461 355.25384 453.26911 355.41845 477.05859 347.72461 C 498.0846 340.92456 502.42826 334.1116 496 318.00977 C 493.99927 312.99902 493.00508 308.27428 493.78906 307.50977 C 494.35335 306.95987 496.85658 305.48013 500.75195 303.33594 L 500.75195 427.42188 L 497.00195 432.73438 L 497.00195 541.17383 C 428.57417 539.86316 366.78146 511.72287 321.68164 466.82812 C 317.59554 471.0403 313.31605 475.45623 308.60742 480.33008 C 358.23761 529.64256 426.58806 560.13672 502.00195 560.13672 C 653.46391 560.13672 776.45312 437.1534 776.45312 285.69141 C 776.45312 281.84424 776.34885 278.0216 776.19141 274.21289 L 838.48242 274.21289 L 838.48242 221.49023 L 810.4043 221.49023 L 810.4043 251.54492 L 774.32227 251.54492 C 772.4832 236.78375 769.47658 222.3817 765.38477 208.44141 L 778.48047 208.44141 L 778.48047 226.17773 L 800.97266 226.17773 L 800.97266 168.2832 L 778.16797 168.2832 L 778.16797 185.52539 L 757.52539 185.52539 C 756.11473 181.93536 754.64926 178.37217 753.09375 174.85742 C 746.0325 178.12967 739.85878 180.98783 735.97656 182.74219 C 736.38235 183.66422 736.76692 184.59768 737.16211 185.52539 L 733.40234 185.52539 L 733.40234 177.68945 C 741.8194 173.86863 758.37449 166.09827 800.1875 146.85742 L 808.23633 146.85742 L 808.23633 176.41602 L 836.625 176.41602 L 836.625 130.11914 L 883.51758 108.61914 L 877.43555 95.208984 L 872.86914 91.037109 C 872.86914 91.037109 861.84596 94.941915 859.92188 97.365234 L 856.62891 101.51367 L 833.85742 111.9082 C 831.18142 113.03105 820.64934 117.95384 807.3418 124.18945 L 723.8457 124.18945 C 673.9148 55.753066 593.11378 11.242188 502.00195 11.242188 z M 497.00195 30.203125 L 497.00195 138.64258 L 498.7832 141.16602 L 498.7832 146.85742 L 500.75195 146.85742 L 500.75195 221.11719 C 493.87129 223.66143 491.97704 222.8584 490.02344 220.11328 C 486.98432 215.8425 485.25131 215.58806 479.52344 218.55859 C 475.05793 220.87467 473.13859 224.03931 474.02734 227.625 C 475.00324 231.56348 471.2282 234.65184 455.25977 241.99023 L 455.25977 146.85742 L 480.05469 146.85742 L 480.05469 124.18945 L 397.42383 124.18945 L 397.42383 146.85742 L 422.22461 146.85742 L 422.22461 251.54492 L 397.42383 251.54492 L 397.42383 262.45703 C 396.20347 262.95929 394.9846 263.47693 393.7832 264.01367 C 385.00903 267.93119 375.42125 271.83962 372.47656 272.69727 C 367.69286 274.09193 367.48635 275.03422 371.2168 284.43945 L 360.26758 284.43945 L 354.95508 280.68945 L 246.51172 280.68945 C 246.55325 278.5236 246.62183 276.36514 246.7168 274.21289 L 254.66602 274.21289 L 254.66602 251.54492 L 248.73828 251.54492 C 251.22454 232.89105 255.71931 214.87901 261.99805 197.72852 L 331.41992 274.21289 L 361.29688 274.21289 L 361.29688 146.85742 L 384.54688 146.85742 L 384.54688 124.18945 L 308.42383 124.18945 L 308.42383 146.85742 L 332.91016 146.85742 L 332.91016 231.07812 L 275.04492 168.06641 C 316.85214 87.481865 400.30496 32.05538 497.00195 30.203125 z M 507.00195 30.203125 C 584.92777 31.696253 654.25403 67.98237 700.11328 124.18945 L 675.56641 124.18945 L 675.56641 146.85742 L 700.05469 146.85742 L 700.05469 174.03516 C 680.00745 183.28013 662.97884 191.13253 649.17969 197.49609 C 656.27454 189.82322 659.83984 180.21449 659.83984 168.77734 C 659.83984 154.13618 653.48406 142.76967 641.0332 135.14648 C 629.29614 127.67406 612.73959 124.18945 592.17578 124.18945 L 507.00195 124.18945 L 507.00195 30.203125 z M 641.0332 135.14648 C 641.0521 135.15971 641.08078 135.16803 641.10156 135.18164 L 641.00586 135.12695 C 641.0172 135.13262 641.02186 135.14082 641.0332 135.14648 z M 82.447266 121.48047 C 70.802617 121.48047 60.401949 123.02448 51.398438 126.24414 C 42.354221 129.47836 35.018395 134.27315 29.695312 140.81055 L 29.654297 140.85938 L 29.613281 140.91016 C 24.38065 147.64248 21.914063 155.53826 21.914062 164.58984 C 21.914062 178.21552 27.661323 188.92834 39.025391 196.42188 L 39.076172 196.45312 L 39.126953 196.48828 C 49.955145 203.30043 64.164799 207.67529 81.412109 209.875 L 92.931641 211.35547 L 92.980469 211.36133 C 103.11551 212.48889 110.69717 214.03763 116.18945 215.99414 L 116.28516 216.0293 L 116.37695 216.05469 C 121.85399 217.79566 124.90607 220.00147 126.44141 222.23828 L 126.53711 222.37891 L 126.64258 222.51562 C 128.31856 224.66709 129.47657 228.13241 129.47656 233.56445 C 129.47656 239.52743 127.09859 244.06166 122.30859 247.37695 C 117.15725 250.94237 109.36883 253.01953 98.255859 253.01953 C 87.619052 253.01953 78.872042 251.53063 71.853516 248.74609 C 65.04139 245.96136 59.89684 242.14995 56.283203 237.52148 C 52.829921 232.83545 50.809112 227.4517 50.277344 221.25391 L 49.832031 216.07031 L 22.53125 216.07031 L 22.53125 274.21289 L 51.539062 274.21289 L 51.539062 263.75977 C 51.564385 263.77753 51.574211 263.80435 51.599609 263.82227 L 51.640625 263.85156 L 51.681641 263.87695 C 57.824828 268.03553 64.891089 271.2235 72.824219 273.5 L 72.884766 273.51562 L 72.939453 273.53125 C 80.916955 275.64441 89.573725 276.67383 98.876953 276.67383 C 111.41501 276.67383 122.36535 274.78004 131.52344 270.77734 C 140.54598 266.8339 147.73488 261.40971 152.77734 254.34961 C 157.81321 247.29877 160.33984 239.60059 160.33984 231.09961 C 160.33984 221.60446 158.04403 213.43662 152.94922 206.94141 C 152.95791 206.95199 152.9702 206.96012 152.97852 206.9707 L 152.92773 206.9043 C 152.93605 206.9145 152.94166 206.92887 152.94922 206.93945 C 147.98133 200.44286 140.66818 195.7263 131.47656 192.51172 C 122.52929 189.22159 111.34267 186.67484 98.103516 184.83789 L 98.027344 184.82812 L 86.949219 183.61133 C 74.965758 181.86247 66.145332 179.21714 60.154297 175.91211 C 55.129392 172.99549 52.777344 168.93996 52.777344 163.11523 C 52.777344 158.12865 54.932325 154.01869 59.638672 150.77734 C 64.812724 147.19623 72.482552 145.13477 83.376953 145.13477 C 94.526541 145.13477 102.71018 146.55971 108.33984 149.07617 C 114.22875 151.70852 117.97396 154.85073 120.11523 158.25391 L 120.19141 158.37109 L 120.26758 158.48242 C 122.94707 162.3152 124.40672 165.94131 124.87891 169.31836 L 125.5625 174.20312 L 152.28125 174.20312 L 152.28125 124.18945 L 123.58594 124.18945 L 123.58594 131.71094 C 121.8783 130.6677 120.26025 129.57074 118.31641 128.66406 C 107.92044 123.81502 95.919497 121.48047 82.447266 121.48047 z M 857.19141 124.18945 L 857.19141 146.85742 L 881.68359 146.85742 L 881.68359 251.54492 L 857.19141 251.54492 L 857.19141 274.21289 L 939.51367 274.21289 L 939.51367 251.54492 L 915.02539 251.54492 L 915.02539 210.41016 L 941.54492 210.41016 L 989.2793 274.21289 L 1038.0879 274.21289 L 1038.0879 251.54492 L 1009.4941 251.54492 L 975.45703 207.14258 C 983.00395 205.85987 989.90159 204.14282 995.26758 201.43359 C 1002.9889 197.63773 1008.9225 192.70688 1012.5254 186.38477 C 1016.1339 180.24685 1017.9395 173.53578 1017.9395 166.31641 C 1017.9395 157.37085 1015.3051 149.57751 1009.832 143.02734 C 1009.8434 143.04284 1009.866 143.05305 1009.877 143.06836 L 1009.7969 142.9668 C 1009.812 142.98343 1009.8148 143.00383 1009.8262 143.02148 C 1004.642 136.57298 997.25855 131.96443 988.04297 128.92188 C 988.06187 128.9283 988.08537 128.93107 988.10352 128.9375 L 988.00781 128.9082 C 988.01537 128.91196 988.0276 128.91576 988.03516 128.91992 C 978.82713 125.71789 967.8281 124.18945 955.23438 124.18945 L 857.19141 124.18945 z M 1012.5254 186.38477 C 1012.5141 186.40215 1012.5134 186.42218 1012.5059 186.43945 L 1012.5508 186.35938 C 1012.547 186.36958 1012.5329 186.37456 1012.5254 186.38477 z M 995.26758 201.43359 C 995.25624 201.43926 995.24962 201.44746 995.23828 201.45312 L 995.29688 201.42383 C 995.28932 201.42836 995.27892 201.42906 995.26758 201.43359 z M 503.25195 146.85742 L 523.26953 146.85742 L 523.26953 210.8418 C 514.19451 215.24458 507.81531 218.25937 503.25195 220.13477 L 503.25195 146.85742 z M 556.61719 146.85742 L 594.3457 146.85742 C 605.60408 146.85742 613.5936 149.09264 618.92969 152.93555 C 623.81745 156.45553 626.49219 161.7217 626.49219 169.02539 C 626.49219 176.95216 623.53518 182.8163 617.97852 186.85352 C 614.7635 189.1894 610.67091 190.98146 605.62109 192.14062 C 601.93455 183.65426 596.36337 172.0476 595.66797 172.03906 C 591.68248 171.98778 563.90589 185.58769 556.61719 190.72852 L 556.61719 146.85742 z M 738.73047 146.85742 L 758.83203 146.85742 C 751.17358 150.42245 743.49749 154.00171 735.80469 157.54883 C 734.85842 157.98515 734.35401 158.21744 733.40234 158.65625 L 733.40234 152.42188 C 733.41389 152.41655 733.42008 152.41354 733.43164 152.4082 C 735.69709 151.36361 737.89415 150.33399 740.15234 149.28906 C 739.68442 148.47453 739.20648 147.66668 738.73047 146.85742 z M 915.02539 146.85742 L 955.54297 146.85742 C 963.53372 146.85742 969.34813 147.99353 973.56445 150.00391 L 973.62891 150.03516 L 973.69922 150.06445 C 978.07036 152.00967 980.7746 154.37694 982.30859 156.92578 L 982.36328 157.02148 L 982.42383 157.11328 C 984.27451 159.93206 985.21289 163.07012 985.21289 166.31641 C 985.21289 169.3098 984.37084 172.52356 982.50977 175.88477 C 980.97089 178.66414 977.99547 181.39741 972.97656 183.83203 C 968.11042 186.02817 960.85147 187.25195 950.27344 187.25195 L 915.02539 187.25195 L 915.02539 146.85742 z M 230.48633 163.01367 L 247.82227 182.11328 C 239.62347 202.18678 233.73372 223.4415 230.48633 245.55273 L 230.48633 163.01367 z M 700.05469 203.69141 L 700.05469 251.54492 L 675.56641 251.54492 L 675.56641 274.21289 L 757.28516 274.21289 C 757.38015 276.36429 757.44872 278.52245 757.49023 280.6875 L 649.04883 280.6875 L 643.73633 284.4375 L 537.03125 284.4375 C 543.3653 281.21669 550.23637 277.75148 557.2793 274.21289 L 581.10547 274.21289 L 581.10547 262.30859 C 630.61349 237.696 683.22963 212.2818 685.99414 212.31445 C 692.0264 212.38555 697.81954 208.3907 700.05469 203.69141 z M 733.40234 208.44141 L 745.64648 208.44141 C 750.04232 222.33211 753.28371 236.73565 755.25977 251.54492 L 733.40234 251.54492 L 733.40234 208.44141 z M 611.28516 214.95312 C 584.58979 227.21278 566.60765 235.27832 556.61719 239.45312 L 556.61719 221.09375 C 559.73058 220.2604 562.77532 219.74916 564.96094 219.77734 C 567.13378 219.8052 571.95295 218.3884 577.61328 216.32227 L 591.24414 216.32227 C 598.41029 216.32227 605.09517 215.86479 611.28516 214.95312 z M 523.26953 240.40039 L 523.26953 251.54492 L 503.25195 251.54492 L 503.25195 248.98047 C 509.41661 246.22942 516.55868 243.15573 523.26953 240.40039 z M 500.75195 250.09766 L 500.75195 251.54492 L 498.7832 251.54492 L 498.7832 265.51758 C 496.2703 266.44193 494.48741 267.00754 493.95703 267.00195 C 491.82432 266.97474 487.78438 260.05989 487.83008 256.51758 C 487.83386 256.12496 493.26203 253.47997 500.75195 250.09766 z M 480.05469 267.51758 C 480.33683 267.90149 480.56866 268.32275 480.74219 268.79297 C 481.51026 270.87429 481.22523 272.69145 480.05469 274.18555 L 480.05469 267.51758 z M 437.19922 274.21289 L 480.0332 274.21289 C 477.79639 277.03351 472.33316 278.67403 464.44336 278.60938 C 459.1843 278.56636 453.02528 280.34301 450.75586 282.55469 C 450.18851 283.10761 449.42845 283.75064 448.54102 284.43945 L 418.38477 284.43945 C 426.10331 280.14297 432.19727 276.81393 437.19922 274.21289 z M 360.26758 286.93945 L 372.21875 286.93945 C 379.59266 305.13608 381.55945 305.09331 406.15234 291.2793 C 409.04708 289.65328 411.35763 288.36881 413.91406 286.93945 L 445.04688 286.93945 C 443.02615 288.29574 440.83456 289.63417 438.86523 290.67383 C 435.18567 292.6163 423.56789 303.46434 411.46484 316.11133 C 403.39895 316.85068 395.92599 319.06742 389.05859 322.82812 L 389.04688 322.83398 L 389.03125 322.83789 C 380.57645 327.52366 373.87563 334.02254 368.97461 342.29297 L 368.96094 342.3125 L 368.94531 342.33789 C 367.96019 344.03565 367.08357 345.7752 366.30273 347.55078 C 359.73557 347.72805 350.3033 351.19394 330.17188 360.47852 C 330.42698 358.54639 330.55664 356.55127 330.55664 354.48828 C 330.55664 342.77412 326.68223 333.43944 318.25391 326.46094 C 310.07968 319.60142 299.28711 316.51758 286.29102 316.51758 L 248.30859 316.51758 C 247.28934 308.02939 246.67872 299.41451 246.51172 290.68945 L 354.95508 290.68945 L 360.26758 286.93945 z M 532.13281 286.93945 L 643.73633 286.93945 L 649.04883 290.68945 L 757.49023 290.68945 C 754.86278 427.96181 644.27375 538.54568 507.00195 541.17578 L 507.00195 432.73633 L 503.25195 427.42383 L 503.25195 301.9707 C 510.04384 298.29833 520.25255 293.00445 532.13281 286.93945 z M 16.943359 316.51758 L 16.943359 334.15039 L 51.433594 334.15039 L 51.433594 423.66602 L 69.751953 423.66602 L 69.751953 334.15039 L 104.24805 334.15039 L 104.24805 316.51758 L 16.943359 316.51758 z M 506.21484 316.51758 L 506.21484 423.66602 L 583.66016 423.66602 L 583.66016 406.03516 L 524.52734 406.03516 L 524.52734 378.08594 L 575.58203 378.08594 L 575.58203 360.5918 L 524.52734 360.5918 L 524.52734 334.15039 L 581.60547 334.15039 L 581.60547 316.51758 L 506.21484 316.51758 z M 611.87109 316.51758 L 611.87109 334.15039 L 646.36133 334.15039 L 646.36133 423.66602 L 664.67969 423.66602 L 664.67969 334.15039 L 699.16992 334.15039 L 699.16992 316.51758 L 611.87109 316.51758 z M 775.88867 316.51758 L 775.88867 423.66602 L 819.47266 423.66602 C 830.24333 423.66602 839.93777 421.45484 848.55664 416.83984 C 857.18678 412.26741 863.98161 405.91245 868.82617 397.76953 L 868.83789 397.75391 L 868.84961 397.73828 C 873.69969 389.48289 876.05859 380.24353 876.05859 370.09375 C 876.05859 359.94805 873.69804 350.74299 868.83594 342.56641 C 864.00003 334.34443 857.20769 327.92516 848.57227 323.34766 L 848.56055 323.3457 C 839.94167 318.7307 830.24723 316.51953 819.47656 316.51953 L 775.88867 316.51758 z M 902.6582 316.51758 L 902.6582 423.66602 L 920.97656 423.66602 L 920.97656 316.51758 L 902.6582 316.51758 z M 943.07031 316.51758 L 986.14258 386.61523 L 986.14258 423.66602 L 1004.4609 423.66602 L 1004.4609 386.61523 L 1047.5254 316.51758 L 1026.9629 316.51758 L 995.50391 367.74609 L 964.05078 316.51758 L 943.07031 316.51758 z M 264.58203 334.15039 L 286.29102 334.15039 C 295.66718 334.15039 301.99425 336.23087 306.0293 339.65039 L 306.05469 339.66992 L 306.07422 339.68359 C 309.79854 342.77666 312.10156 347.7127 312.10156 354.48633 C 312.10156 361.24874 309.79736 366.2476 306.04297 369.43945 C 302.00329 372.78207 295.67187 374.82422 286.29102 374.82422 L 264.58203 374.82422 L 264.58203 334.15039 z M 794.20703 334.15039 L 818.92188 334.15039 C 826.98882 334.15039 833.86451 335.77003 839.68555 338.83789 L 839.71289 338.85352 L 839.73828 338.86328 C 845.56556 341.85564 849.94935 345.99624 853.03125 351.3125 C 856.11784 356.6368 857.74414 362.87752 857.74414 370.0957 C 857.74414 377.31392 856.11856 383.5475 853.03125 388.87305 C 849.94723 394.193 845.55017 398.38526 839.70898 401.46875 C 833.88485 404.45337 826.99796 406.03519 818.92383 406.03516 L 794.21094 406.03516 L 794.20703 334.15039 z M 167.76172 343.55664 L 184.11914 379.48047 L 151.48828 379.48047 L 167.76172 343.55664 z M 264.58203 392.32227 L 268.44336 392.32227 C 267.79005 392.71977 267.0185 393.16938 266.44531 393.53125 C 265.84369 393.91108 265.19805 394.33604 264.58203 394.73047 L 264.58203 392.32227 z "
       style="color:#000000;font-style:normal;font-variant:normal;font-weight:normal;font-stretch:normal;font-size:medium;line-height:normal;font-family:sans-serif;font-variant-ligatures:normal;font-variant-position:normal;font-variant-caps:normal;font-variant-numeric:normal;font-variant-alternates:normal;font-variant-east-asian:normal;font-feature-settings:normal;font-variation-settings:normal;text-indent:0;text-align:start;text-decoration:none;text-decoration-line:none;text-decoration-style:solid;text-decoration-color:#000000;letter-spacing:normal;word-spacing:normal;text-transform:none;writing-mode:lr-tb;direction:ltr;text-orientation:mixed;dominant-baseline:auto;baseline-shift:baseline;text-anchor:start;white-space:normal;shape-padding:0;shape-margin:0;inline-size:0;clip-rule:nonzero;display:inline;overflow:visible;visibility:visible;isolation:auto;mix-blend-mode:normal;color-interpolation:sRGB;color-interpolation-filters:linearRGB;solid-color:#000000;solid-opacity:1;vector-effect:none;fill:#e5e5e5;fill-opacity:1;fill-rule:nonzero;stroke:none;stroke-width:18.8976;stroke-linecap:butt;stroke-linejoin:miter;stroke-miterlimit:4;stroke-dasharray:none;stroke-dashoffset:0;stroke-opacity:1;color-rendering:auto;image-rendering:auto;shape-rendering:auto;text-rendering:auto;enable-background:accumulate;stop-color:#000000"
       id="path838" />
  </g>
</svg>
