<?xml version="1.0" encoding="UTF-8" standalone="no"?>
<svg
   xmlns:dc="http://purl.org/dc/elements/1.1/"
   xmlns:cc="http://creativecommons.org/ns#"
   xmlns:rdf="http://www.w3.org/1999/02/22-rdf-syntax-ns#"
   xmlns:svg="http://www.w3.org/2000/svg"
   xmlns="http://www.w3.org/2000/svg"
   xmlns:sodipodi="http://sodipodi.sourceforge.net/DTD/sodipodi-0.dtd"
   xmlns:inkscape="http://www.inkscape.org/namespaces/inkscape"
   width="10mm"
   height="9mm"
   viewBox="0 0 10 9"
   version="1.1"
   id="svg8"
   inkscape:version="1.0 (4035a4fb49, 2020-05-01)"
   sodipodi:docname="cart.svg">
  <defs
     id="defs2">
    <inkscape:path-effect
       effect="fillet_chamfer"
       id="path-effect874"
       is_visible="true"
       lpeversion="1"
       satellites_param="F,0,0,1,0,1.3229167,0,1 @ F,0,0,1,0,1.3229167,0,1 @ F,0,0,1,0,1.3229167,0,1 @ F,0,0,1,0,1.3229167,0,1"
       unit="px"
       method="arc"
       mode="F"
       radius="5"
       chamfer_steps="1"
       flexible="false"
       use_knot_distance="true"
       apply_no_radius="true"
       apply_with_radius="true"
       only_selected="false"
       hide_knots="false" />
  </defs>
  <sodipodi:namedview
     id="base"
     pagecolor="#ffffff"
     bordercolor="#666666"
     borderopacity="1.0"
     inkscape:pageopacity="0.0"
     inkscape:pageshadow="2"
     inkscape:zoom="4"
     inkscape:cx="129.80958"
     inkscape:cy="53.335095"
     inkscape:document-units="mm"
     inkscape:current-layer="layer1"
     inkscape:document-rotation="0"
     showgrid="false"
     inkscape:snap-smooth-nodes="false"
     inkscape:window-width="1920"
     inkscape:window-height="1001"
     inkscape:window-x="-9"
     inkscape:window-y="-9"
     inkscape:window-maximized="1" />
  <metadata
     id="metadata5">
    <rdf:RDF>
      <cc:Work
         rdf:about="">
        <dc:format>image/svg+xml</dc:format>
        <dc:type
           rdf:resource="http://purl.org/dc/dcmitype/StillImage" />
        <dc:title></dc:title>
      </cc:Work>
    </rdf:RDF>
  </metadata>
  <g
     inkscape:label="Layer 1"
     inkscape:groupmode="layer"
     id="layer1">
    <path
       id="rect862"
       style="fill:#ffffff;fill-opacity:1;stroke:none;stroke-width:1.64934"
       d="M 0.55063931,0.6528884 C 0.39836382,0.6606994 0.26829972,0.77420464 0.24465526,0.93108663 0.21763146,1.1103833 0.34015036,1.2763649 0.51944355,1.3033808 l 0.54736235,0.082506 0.54685,5.0288759 -0.4183194,0.5662833 c -0.00293,0.00397 -0.00461,0.0084 -0.00733,0.012443 -0.00161,0.00238 -0.00288,0.00492 -0.00443,0.00733 -0.00994,0.015626 -0.018905,0.031506 -0.025911,0.048071 -0.00127,0.00297 -0.00205,0.00618 -0.00324,0.00921 -0.00646,0.016648 -0.01208,0.033454 -0.015683,0.050628 -0.00116,0.0054 -0.0015,0.011041 -0.00239,0.016536 -0.0024,0.015342 -0.0044,0.030609 -0.0046,0.046026 -4.8e-5,0.00231 -6.829e-4,0.00448 -6.829e-4,0.00682 0,0.00795 0.00183,0.015382 0.00238,0.023183 7.983e-4,0.010101 0.00117,0.020195 0.0029,0.030173 0.00248,0.015154 0.00661,0.029612 0.011081,0.043979 0.00143,0.00444 0.00247,0.00891 0.00409,0.013297 0.045309,0.1262947 0.1645685,0.2166603 0.3068367,0.2166603 h 7.2800384 c 0.1813198,0 0.3272919,-0.145973 0.3272919,-0.3272918 0,-0.1813189 -0.1459721,-0.3272922 -0.3272919,-0.3272922 H 2.1052764 l 0.096142,-0.1302376 c 2.785e-4,-3.629e-4 4.058e-4,-8.247e-4 6.829e-4,-0.00119 0.055655,-0.06545 0.085951,-0.1523391 0.076539,-0.2449575 L 2.2184645,5.9214374 8.5638392,4.9714387 A 0.65811984,0.65811984 0 0 0 9.103871,4.484251 L 9.7379989,2.013025 A 0.33319778,0.33319778 0 0 0 9.4100252,1.5970918 L 1.7950306,1.7145417 a 0.40848596,0.40848596 0 0 0 -0.033922,0.00188 L 1.6930927,1.0916639 C 1.6897316,0.95159953 1.5972057,0.82957895 1.462625,0.78840739 1.460845,0.78784991 1.458965,0.78757282 1.457175,0.78704539 1.443445,0.78309839 1.429934,0.77866539 1.415411,0.77647609 L 0.61712061,0.65612728 c -0.0224121,-0.003378 -0.0447282,-0.004355 -0.0664813,-0.003239 z M 1.6291686,7.5848315 A 0.44743209,0.44743209 0 0 0 1.1816994,8.0323006 0.44743209,0.44743209 0 0 0 1.6291686,8.4797701 0.44743209,0.44743209 0 0 0 2.0766379,8.0323006 0.44743209,0.44743209 0 0 0 1.6291686,7.5848315 Z m 6.5881154,0 A 0.44743209,0.44743209 0 0 0 7.7698149,8.0323006 0.44743209,0.44743209 0 0 0 8.217284,8.4797701 0.44743209,0.44743209 0 0 0 8.6645833,8.0323006 0.44743209,0.44743209 0 0 0 8.217284,7.5848315 Z" />
  </g>
</svg>
