<?xml version="1.0" encoding="UTF-8" standalone="no"?>
<svg
   xmlns:dc="http://purl.org/dc/elements/1.1/"
   xmlns:cc="http://creativecommons.org/ns#"
   xmlns:rdf="http://www.w3.org/1999/02/22-rdf-syntax-ns#"
   xmlns:svg="http://www.w3.org/2000/svg"
   xmlns="http://www.w3.org/2000/svg"
   xmlns:sodipodi="http://sodipodi.sourceforge.net/DTD/sodipodi-0.dtd"
   xmlns:inkscape="http://www.inkscape.org/namespaces/inkscape"
   sodipodi:docname="cart.svg"
   inkscape:version="1.0 (4035a4fb49, 2020-05-01)"
   id="svg8"
   version="1.1"
   viewBox="0 0 10 9"
   height="9mm"
   width="10mm">
  <defs
     id="defs2">
    <inkscape:path-effect
       update_on_knot_move="true"
       attempt_force_join="true"
       miter_limit="4"
       offset="0.2"
       unit="mm"
       linejoin_type="miter"
       lpeversion="1"
       is_visible="true"
       id="path-effect944"
       effect="offset" />
    <inkscape:path-effect
       update_on_knot_move="true"
       attempt_force_join="true"
       miter_limit="4"
       offset="0.2"
       unit="mm"
       linejoin_type="miter"
       lpeversion="1"
       is_visible="true"
       id="path-effect942"
       effect="offset" />
    <inkscape:path-effect
       update_on_knot_move="true"
       attempt_force_join="true"
       miter_limit="4"
       offset="0.2"
       unit="mm"
       linejoin_type="miter"
       lpeversion="1"
       is_visible="true"
       id="path-effect940"
       effect="offset" />
    <inkscape:path-effect
       hide_knots="false"
       only_selected="false"
       apply_with_radius="true"
       apply_no_radius="true"
       use_knot_distance="true"
       flexible="false"
       chamfer_steps="1"
       radius="5"
       mode="F"
       method="arc"
       unit="px"
       satellites_param="F,0,0,1,0,1.3229167,0,1 @ F,0,0,1,0,1.3229167,0,1 @ F,0,0,1,0,1.3229167,0,1 @ F,0,0,1,0,1.3229167,0,1"
       lpeversion="1"
       is_visible="true"
       id="path-effect874"
       effect="fillet_chamfer" />
  </defs>
  <sodipodi:namedview
     inkscape:window-maximized="1"
     inkscape:window-y="-9"
     inkscape:window-x="-9"
     inkscape:window-height="1001"
     inkscape:window-width="1920"
     inkscape:snap-smooth-nodes="false"
     showgrid="false"
     inkscape:document-rotation="0"
     inkscape:current-layer="layer1"
     inkscape:document-units="mm"
     inkscape:cy="20.200499"
     inkscape:cx="12.960192"
     inkscape:zoom="16"
     inkscape:pageshadow="2"
     inkscape:pageopacity="0.0"
     borderopacity="1.0"
     bordercolor="#666666"
     pagecolor="#ffffff"
     id="base" />
  <metadata
     id="metadata5">
    <rdf:RDF>
      <cc:Work
         rdf:about="">
        <dc:format>image/svg+xml</dc:format>
        <dc:type
           rdf:resource="http://purl.org/dc/dcmitype/StillImage" />
        <dc:title></dc:title>
      </cc:Work>
    </rdf:RDF>
  </metadata>
  <g
     id="layer1"
     inkscape:groupmode="layer"
     inkscape:label="Layer 1">
    <path
       transform="scale(0.26458333)"
       d="M 3.1210938 1.7109375 C 2.2401614 1.7561249 1.4963077 2.4129986 1.3613281 3.3085938 C 1.2062209 4.3376936 1.9125385 5.2905776 2.9394531 5.4453125 L 4.2382812 5.640625 L 6.0214844 22.007812 L 4.7441406 23.736328 L 4.7304688 23.759766 C 3.935083 25.021362 4.7234488 26.667868 6.2480469 26.714844 L 6.2597656 26.714844 L 31.228516 26.714844 C 32.26935 26.714844 33.107422 25.876767 33.107422 24.835938 C 33.107422 23.795107 32.267717 22.958984 31.228516 22.958984 L 9.6425781 22.958984 C 9.6983927 22.746434 9.8576516 22.57658 9.8339844 22.34375 L 9.7070312 21.169922 L 30.742188 18.019531 C 31.938471 17.840672 32.912892 16.963788 33.214844 15.791016 L 35.388672 7.3164062 C 35.700036 6.0951069 34.782387 4.9312084 33.521484 4.9492188 L 7.9863281 5.34375 L 7.828125 3.8886719 L 7.8320312 3.953125 C 7.8126353 3.1448364 7.277562 2.4458104 6.5097656 2.2109375 C 6.3975927 2.1758733 6.4817916 2.2026954 6.4765625 2.2011719 C 6.4366165 2.1896891 6.3407777 2.159937 6.2382812 2.1445312 L 3.5 1.7304688 C 3.3758751 1.7117848 3.2491923 1.7043804 3.1210938 1.7109375 z M 31.708984 8.4785156 L 29.914062 14.640625 L 9.3769531 17.748047 L 8.265625 8.7753906 L 31.708984 8.4785156 z M 7.109375 27.291016 C 5.8397625 27.290772 4.8215348 28.310972 4.8203125 29.580078 C 4.8200699 30.849612 5.840131 31.867431 7.109375 31.867188 C 8.3789089 31.867431 9.3967282 30.850195 9.3964844 29.580078 C 9.3952632 28.311555 8.3786968 27.290772 7.109375 27.291016 z M 30.501953 27.291016 C 29.233347 27.292237 28.221919 28.315428 28.220703 29.580078 C 28.22046 30.84516 29.232844 31.865966 30.501953 31.867188 C 31.771487 31.867431 32.791259 30.850195 32.791016 29.580078 C 32.789794 28.311556 31.772148 27.290772 30.501953 27.291016 z "
       style="fill:#333333;fill-opacity:1;stroke:none;stroke-width:5.65425"
       id="rect862" />
  </g>
</svg>
