<?xml version="1.0" encoding="UTF-8" standalone="no"?>
<svg
   xmlns:dc="http://purl.org/dc/elements/1.1/"
   xmlns:cc="http://creativecommons.org/ns#"
   xmlns:rdf="http://www.w3.org/1999/02/22-rdf-syntax-ns#"
   xmlns:svg="http://www.w3.org/2000/svg"
   xmlns="http://www.w3.org/2000/svg"
   xmlns:sodipodi="http://sodipodi.sourceforge.net/DTD/sodipodi-0.dtd"
   xmlns:inkscape="http://www.inkscape.org/namespaces/inkscape"
   sodipodi:docname="cart.svg"
   inkscape:version="1.0 (4035a4fb49, 2020-05-01)"
   id="svg8"
   version="1.1"
   viewBox="0 0 30 25"
   height="25mm"
   width="30mm">
  <defs
     id="defs2">
    <inkscape:path-effect
       hide_knots="false"
       only_selected="false"
       apply_with_radius="true"
       apply_no_radius="true"
       use_knot_distance="true"
       flexible="false"
       chamfer_steps="1"
       radius="5"
       mode="F"
       method="arc"
       unit="px"
       satellites_param="F,0,0,1,0,1.3229167,0,1 @ F,0,0,1,0,1.3229167,0,1 @ F,0,0,1,0,1.3229167,0,1 @ F,0,0,1,0,1.3229167,0,1"
       lpeversion="1"
       is_visible="true"
       id="path-effect874"
       effect="fillet_chamfer" />
  </defs>
  <sodipodi:namedview
     inkscape:window-maximized="1"
     inkscape:window-y="-9"
     inkscape:window-x="-9"
     inkscape:window-height="1001"
     inkscape:window-width="1920"
     inkscape:snap-smooth-nodes="false"
     showgrid="false"
     inkscape:document-rotation="0"
     inkscape:current-layer="layer1"
     inkscape:document-units="mm"
     inkscape:cy="53.335095"
     inkscape:cx="129.80958"
     inkscape:zoom="4"
     inkscape:pageshadow="2"
     inkscape:pageopacity="0.0"
     borderopacity="1.0"
     bordercolor="#666666"
     pagecolor="#ffffff"
     id="base" />
  <metadata
     id="metadata5">
    <rdf:RDF>
      <cc:Work
         rdf:about="">
        <dc:format>image/svg+xml</dc:format>
        <dc:type
           rdf:resource="http://purl.org/dc/dcmitype/StillImage" />
        <dc:title></dc:title>
      </cc:Work>
    </rdf:RDF>
  </metadata>
  <g
     id="layer1"
     inkscape:groupmode="layer"
     inkscape:label="Layer 1">
    <path
       d="M 1.3782708,0.78607537 C 0.91664687,0.80975557 0.52235687,1.1538462 0.45067857,1.6294347 0.36875567,2.1729736 0.74017247,2.6761476 1.2837007,2.7580467 L 2.9430324,3.0081626 4.600811,18.253226 3.3326737,19.969917 c -0.00888,0.01202 -0.013965,0.02545 -0.022222,0.03772 -0.00489,0.0072 -0.00873,0.01492 -0.013436,0.02222 -0.030125,0.04737 -0.057311,0.09551 -0.078549,0.145727 -0.00386,0.009 -0.00622,0.01874 -0.00982,0.02791 -0.019574,0.05047 -0.036621,0.101415 -0.047543,0.153479 -0.00351,0.01636 -0.00454,0.03347 -0.00724,0.05013 -0.00728,0.04651 -0.013348,0.09279 -0.013952,0.139528 -1.455e-4,0.007 -0.00207,0.01359 -0.00207,0.02067 0,0.02409 0.00556,0.04663 0.00723,0.07028 0.00242,0.03062 0.00354,0.06122 0.00878,0.09147 0.00752,0.04594 0.020034,0.08977 0.033591,0.133323 0.00432,0.01346 0.0075,0.02702 0.012401,0.04031 0.1373558,0.382863 0.4988904,0.656807 0.9301771,0.656807 H 26.199495 c 0.549672,0 0.992187,-0.442518 0.992187,-0.992187 0,-0.549669 -0.442515,-0.992188 -0.992187,-0.992188 H 6.0911613 L 6.3826157,19.1803 c 8.441e-4,-0.0011 0.00123,-0.0025 0.00207,-0.0036 0.1687195,-0.198411 0.2605617,-0.461817 0.232029,-0.74259 L 6.4342915,16.757709 25.670328,13.877783 a 1.9950937,1.9950937 0 0 0 1.637109,-1.476912 L 29.229799,4.9093367 A 1.0100908,1.0100908 0 0 0 28.235545,3.6484331 L 5.1506496,4.0044829 A 1.2383273,1.2383273 0 0 0 5.047814,4.0101729 L 4.8416242,2.1162257 C 4.8314351,1.6916198 4.5509424,1.3217137 4.1429602,1.1969019 c -0.0054,-0.00169 -0.011097,-0.00253 -0.016536,-0.00413 -0.041622,-0.011964 -0.082582,-0.025405 -0.1266084,-0.032041 L 1.5798092,0.79589407 C 1.5118668,0.78565467 1.4442155,0.78269137 1.3782708,0.78607537 Z M 4.6478381,21.800297 a 1.3563927,1.3563927 0 0 0 -1.3565055,1.356505 1.3563927,1.3563927 0 0 0 1.3565055,1.356506 1.3563927,1.3563927 0 0 0 1.3565055,-1.356506 1.3563927,1.3563927 0 0 0 -1.3565055,-1.356505 z m 19.9719059,0 a 1.3563927,1.3563927 0 0 0 -1.356505,1.356505 1.3563927,1.3563927 0 0 0 1.356505,1.356506 1.3563927,1.3563927 0 0 0 1.35599,-1.356506 1.3563927,1.3563927 0 0 0 -1.35599,-1.356505 z"
       style="fill:#ffffff;fill-opacity:1;stroke:none;stroke-width:4.99999"
       id="rect862" />
  </g>
</svg>
