<?xml version="1.0" encoding="UTF-8" standalone="no"?>
<svg
   xmlns:dc="http://purl.org/dc/elements/1.1/"
   xmlns:cc="http://creativecommons.org/ns#"
   xmlns:rdf="http://www.w3.org/1999/02/22-rdf-syntax-ns#"
   xmlns:svg="http://www.w3.org/2000/svg"
   xmlns="http://www.w3.org/2000/svg"
   xmlns:sodipodi="http://sodipodi.sourceforge.net/DTD/sodipodi-0.dtd"
   xmlns:inkscape="http://www.inkscape.org/namespaces/inkscape"
   sodipodi:docname="down arrow.svg"
   inkscape:version="1.0 (4035a4fb49, 2020-05-01)"
   id="svg855"
   version="1.1"
   viewBox="0 0 44 20"
   height="20mm"
   width="44mm">
  <defs
     id="defs849" />
  <sodipodi:namedview
     inkscape:object-paths="true"
     inkscape:bbox-paths="false"
     inkscape:snap-bbox="false"
     inkscape:window-maximized="1"
     inkscape:window-y="-9"
     inkscape:window-x="-9"
     inkscape:window-height="1001"
     inkscape:window-width="1920"
     showgrid="false"
     inkscape:document-rotation="0"
     inkscape:current-layer="layer1"
     inkscape:document-units="mm"
     inkscape:cy="41.474078"
     inkscape:cx="192.10921"
     inkscape:zoom="2.8284271"
     inkscape:pageshadow="2"
     inkscape:pageopacity="0.0"
     borderopacity="1.0"
     bordercolor="#666666"
     pagecolor="#ffffff"
     id="base" />
  <metadata
     id="metadata852">
    <rdf:RDF>
      <cc:Work
         rdf:about="">
        <dc:format>image/svg+xml</dc:format>
        <dc:type
           rdf:resource="http://purl.org/dc/dcmitype/StillImage" />
        <dc:title></dc:title>
      </cc:Work>
    </rdf:RDF>
  </metadata>
  <g
     id="layer1"
     inkscape:groupmode="layer"
     inkscape:label="Layer 1">
    <path
       d="M 3.0576946,0.84722369 C 2.1656835,0.88163857 1.3656397,1.4878506 1.1218953,2.3975166 0.82190232,3.5171063 1.4818022,4.6596409 2.6013916,4.9596342 L 21.600748,10.050796 c 0.0058,0.0015 0.01179,0.0021 0.01757,0.0036 0.05341,0.01389 0.107615,0.02498 0.162264,0.03462 0.01336,0.0024 0.02644,0.0057 0.03979,0.0078 0.04885,0.0076 0.09819,0.01239 0.147795,0.01654 0.02298,0.002 0.04582,0.005 0.06873,0.0062 0.03541,0.0018 0.07129,0.0011 0.106971,0.001 0.03584,5.3e-5 0.07141,7.13e-4 0.10697,-0.001 0.02291,-0.0012 0.04627,-0.0042 0.06925,-0.0062 0.04961,-0.0041 0.09843,-0.0089 0.147278,-0.01654 0.01335,-0.0021 0.02695,-0.0054 0.04031,-0.0078 0.05465,-0.0096 0.108853,-0.02073 0.162264,-0.03462 0.0058,-0.0015 0.0118,-0.002 0.01757,-0.0036 L 41.68686,4.9596342 C 42.80645,4.6596409 43.465834,3.5171063 43.165839,2.3975166 42.87502,1.3121604 41.792503,0.66144571 40.706558,0.8957996 l -18.019054,4.828129 c -0.0058,0.00155 -0.0118,0.00215 -0.01757,0.00362 -0.05341,0.013892 -0.107619,0.024975 -0.162264,0.034623 -0.01336,0.00241 -0.02696,0.00569 -0.04031,0.00775 -0.04885,0.00764 -0.09766,0.012405 -0.147278,0.016536 -0.02298,0.00198 -0.04635,0.005 -0.06925,0.0062 -0.03556,0.00182 -0.07113,0.00109 -0.10697,0.00103 -0.03569,0 -0.07156,7.697e-4 -0.106971,-0.00103 -0.02291,-0.00121 -0.04576,-0.00422 -0.06873,-0.0062 -0.04961,-0.00415 -0.09895,-0.00888 -0.147795,-0.016536 -0.01335,-0.00215 -0.02643,-0.00534 -0.03979,-0.00775 -0.05465,-0.00965 -0.10885,-0.020732 -0.162264,-0.034623 -0.0058,-0.00146 -0.0118,-0.00207 -0.01757,-0.00362 L 3.5429362,0.88546418 C 3.3800565,0.85349961 3.2173071,0.84106551 3.0576946,0.84722369 Z m 0,9.07386471 c -0.8920111,0.03441 -1.6920549,0.6406266 -1.9357993,1.5502926 -0.29999298,1.11959 0.3599069,2.262125 1.4794963,2.562118 l 18.9993564,5.091162 c 0.0058,0.0015 0.01179,0.0021 0.01757,0.0036 0.05341,0.01389 0.107615,0.02498 0.162264,0.03462 0.01336,0.0024 0.02644,0.0057 0.03979,0.0078 0.04885,0.0076 0.09819,0.01239 0.147795,0.01654 0.02298,0.002 0.04582,0.0045 0.06873,0.0057 0.03541,0.0018 0.07129,0.0017 0.106971,0.0016 0.03584,5.3e-5 0.07141,1.96e-4 0.10697,-0.0016 0.02291,-0.0012 0.04627,-0.0037 0.06925,-0.0057 0.04961,-0.0041 0.09843,-0.0089 0.147278,-0.01654 0.01335,-0.0021 0.02695,-0.0054 0.04031,-0.0078 0.05465,-0.0096 0.108853,-0.02073 0.162264,-0.03462 0.0058,-0.0015 0.0118,-0.002 0.01757,-0.0036 l 18.99935,-5.091162 c 1.11959,-0.299993 1.778974,-1.442528 1.478979,-2.562118 C 42.87502,10.386025 41.792503,9.7353101 40.706558,9.969664 l -18.019054,4.828129 c -0.0058,0.0015 -0.0118,0.0021 -0.01757,0.0036 -0.05341,0.01389 -0.107619,0.02497 -0.162264,0.03462 -0.01336,0.0024 -0.02696,0.0057 -0.04031,0.0078 -0.04885,0.0076 -0.09766,0.01292 -0.147278,0.01705 -0.02298,0.002 -0.04635,0.0045 -0.06925,0.0057 -0.03556,0.0018 -0.07113,0.0011 -0.10697,0.001 -0.03569,0 -0.07156,7.4e-4 -0.106971,-0.001 -0.02291,-0.0012 -0.04576,-0.0037 -0.06873,-0.0057 -0.04961,-0.0041 -0.09895,-0.0094 -0.147795,-0.01705 -0.01335,-0.0022 -0.02643,-0.0054 -0.03979,-0.0078 -0.05465,-0.0097 -0.10885,-0.02073 -0.162264,-0.03462 -0.0058,-0.0015 -0.0118,-0.002 -0.01757,-0.0036 L 3.5429362,9.9593288 C 3.3800565,9.9273688 3.2173071,9.9149283 3.0576946,9.9210884 Z"
       style="fill:#ffffff;fill-opacity:0.56910598;stroke-width:4.30342"
       id="rect1438" />
  </g>
</svg>
