<?xml version="1.0" encoding="UTF-8" standalone="no"?>
<svg
   xmlns:dc="http://purl.org/dc/elements/1.1/"
   xmlns:cc="http://creativecommons.org/ns#"
   xmlns:rdf="http://www.w3.org/1999/02/22-rdf-syntax-ns#"
   xmlns:svg="http://www.w3.org/2000/svg"
   xmlns="http://www.w3.org/2000/svg"
   xmlns:sodipodi="http://sodipodi.sourceforge.net/DTD/sodipodi-0.dtd"
   xmlns:inkscape="http://www.inkscape.org/namespaces/inkscape"
   inkscape:export-ydpi="25"
   inkscape:export-xdpi="25"
   inkscape:export-filename="C:\Users\an3so\Documents\Code\Van Staden Website\Serverside\public\resources\other images\favicon.png"
   inkscape:version="1.0 (4035a4fb49, 2020-05-01)"
   sodipodi:docname="favicon.svg"
   width="8in"
   height="8in"
   viewBox="0 0 203.2 203.2"
   version="1.1"
   id="svg8">
  <sodipodi:namedview
     scale-x="0.2"
     width="13in"
     units="in"
     inkscape:current-layer="svg8"
     inkscape:window-maximized="1"
     inkscape:window-y="-9"
     inkscape:window-x="-9"
     inkscape:cy="155.70644"
     inkscape:cx="1135.4281"
     inkscape:zoom="0.35716928"
     showgrid="false"
     id="namedview24"
     inkscape:window-height="1001"
     inkscape:window-width="1920"
     inkscape:pageshadow="2"
     inkscape:pageopacity="0"
     guidetolerance="10"
     gridtolerance="10"
     objecttolerance="10"
     borderopacity="1"
     bordercolor="#666666"
     pagecolor="#ffffff"
     inkscape:document-rotation="0" />
  <defs
     id="defs2" />
  <metadata
     id="metadata5">
    <rdf:RDF>
      <cc:Work
         rdf:about="">
        <dc:format>image/svg+xml</dc:format>
        <dc:type
           rdf:resource="http://purl.org/dc/dcmitype/StillImage" />
        <dc:title></dc:title>
      </cc:Work>
    </rdf:RDF>
  </metadata>
  <path
     d="m 91.078805,22.211699 c -43.812755,0 -79.38987,35.576559 -79.389869,79.389301 2e-6,11.44499 2.431923,22.32594 6.800004,32.15934 1.252757,-0.85014 2.463529,-1.64981 3.575708,-2.35198 0.313735,-0.19807 0.672418,-0.41605 1.062147,-0.64746 -3.659678,-8.5276 -5.764383,-17.88403 -5.952545,-27.7147 h 31.368942 l 1.536724,-1.08475 h 3.457063 c 2.133017,5.26366 2.701941,5.25129 9.815823,1.25537 0.837346,-0.47035 1.505709,-0.8419 2.245199,-1.25537 h 9.005657 c -0.584522,0.39233 -1.218471,0.77949 -1.788139,1.08023 -1.23524,0.65209 -5.560841,4.76905 -9.612432,9.14859 -6.95277,7.51542 -7.522302,7.93152 -10.13899,7.40566 -2.23826,-0.44981 -4.857688,0.42138 -13.596615,4.5209 -5.953372,2.7928 -13.390486,6.69768 -16.527128,8.67797 -7.816866,4.93508 -20.0073113,14.26415 -21.0073546,16.07628 -0.6096981,1.10472 0.3571342,4.05109 3.7423748,11.40792 2.5104735,5.4552 5.3683428,11.25833 6.3514158,12.89548 l 5.65e-4,-0.002 c 1.39904,2.33041 2.107368,2.8103 3.261018,2.21186 0.810586,-0.42043 5.320552,-4.7652 10.022604,-9.65537 28.41944,-29.55646 28.48088,-29.61203 30.951426,-28.2486 3.2141,1.7738 12.33126,-0.0316 11.401138,-2.25763 -0.334267,-0.79974 -0.759878,-3.88893 -0.945199,-6.86497 -0.322876,-5.18308 -0.215998,-5.5292 2.53616,-8.21131 l 2.873447,-2.8 1.259323,1.95085 c 1.565741,2.42541 3.594798,2.47302 10.476275,0.24746 6.082103,-1.96702 7.338577,-3.93777 5.4791,-8.59548 -0.578749,-1.44944 -0.86634,-2.81614 -0.63955,-3.03729 0.163222,-0.15907 0.887332,-0.58711 2.014126,-1.20735 v 35.8938 l -1.084747,1.53673 v 31.36781 c -19.793808,-0.37913 -37.668318,-8.51915 -50.714148,-21.50566 -1.181968,1.21844 -2.419878,2.49581 -3.781923,3.90565 14.35631,14.26441 34.127753,23.08532 55.9424,23.08532 43.812745,0 79.389285,-35.57485 79.389295,-79.38761 0,-11.406902 -2.41645,-22.252655 -6.75706,-32.060462 -2.04258,0.946549 -3.82843,1.773314 -4.95142,2.28079 3.82572,8.692926 6.0301,18.263422 6.22317,28.332212 h -31.36837 l -1.53673,1.08475 h -30.86612 c 16.08016,-8.176626 42.03925,-20.875129 43.08986,-20.862719 2.48953,0.02934 4.84666,-2.334169 4.25932,-4.270626 -0.36597,-1.206634 0.61617,-1.987651 4.58644,-3.649717 6.20416,-2.590134 2.80457,-1.202524 28.18872,-12.858198 l 20.10227,-9.216956 -1.75933,-3.879097 -1.3209,-1.20678 c 0,0 -3.18862,1.129526 -3.7452,1.830509 l -0.95254,1.200001 -6.58701,3.006782 c -1.89413,0.794775 -15.6036,7.318824 -28.36329,13.202265 -12.7597,5.883453 -27.33536,12.606149 -32.39154,14.937295 -15.20861,7.015115 -22.10416,10.034175 -22.31414,9.770061 -0.1094,-0.137806 -0.63948,-1.123566 -1.1774,-2.190962 -0.86878,-1.724544 -0.68788,-2.086057 1.62147,-3.242937 1.42942,-0.715999 3.60856,-1.288792 4.84237,-1.272882 2.10175,0.02695 12.69568,-4.570216 12.70792,-5.514694 0.007,-0.634611 -3.52268,-8.290635 -3.82543,-8.294352 -1.32811,-0.01708 -11.80086,5.211043 -11.80961,5.895483 -0.006,0.494234 -3.99078,2.831842 -8.854233,5.194353 -2.78573,1.353294 -4.699529,2.259821 -6.06893,2.822599 V 60.600984 l 1.084746,-1.536723 V 27.696448 c 26.697677,0.511552 49.905657,15.141401 62.479127,36.741825 0.94583,-0.436161 1.82995,-0.843727 3.01921,-1.392091 0.65532,-0.302164 1.29085,-0.599998 1.94406,-0.90226 C 146.26534,38.292093 120.53371,22.211699 91.078805,22.211699 Z m -1.446329,5.484749 v 31.367813 l 1.084747,1.536723 v 22.320351 c -1.990339,0.735961 -2.538287,0.503672 -3.10339,-0.290397 -0.879122,-1.23539 -1.380414,-1.309558 -3.03729,-0.450283 -1.291716,0.669963 -1.846921,1.585949 -1.589833,2.623166 0.319277,1.288545 -1.100312,2.255693 -7.416951,5.051414 -4.296729,1.90172 -8.570002,3.448394 -9.496051,3.436161 -0.926073,-0.01191 -3.761122,0.904635 -6.298873,2.038418 -2.538067,1.133204 -5.311482,2.263779 -6.16328,2.511867 -1.38376,0.403428 -1.443494,0.676 -0.364405,3.396609 h -3.167234 l -1.536724,-1.08475 H 17.17425 C 17.935667,60.44643 49.925156,28.457052 89.632476,27.696448 Z m 8.789271,60.437882 c 0.680547,-0.02944 1.213308,0.383888 1.675133,1.274013 0.79825,1.538818 0.29789,1.978059 -4.849711,4.255934 v -5.64e-4 c -1.392322,0.616116 -2.700564,1.161622 -3.806782,1.601129 v -4.283617 c 1.922783,-0.858063 4.180103,-1.829281 6.248593,-2.671189 0.262482,-0.10684 0.505917,-0.165891 0.732767,-0.175706 z m -7.704524,3.17006 v 4.246894 c -1.0344,0.396853 -1.774058,0.644953 -1.965538,0.642937 -0.616916,-0.0079 -1.785535,-2.008097 -1.772316,-3.032769 0.0014,-0.113571 1.571283,-0.878682 3.737854,-1.857062 z m -9.080229,4.212995 c 2.057587,-0.01981 2.972254,0.328213 3.292092,1.194916 0.644108,1.745412 -1.219434,2.868194 -4.714692,2.839551 -1.521272,-0.01244 -3.302859,0.501478 -3.959324,1.141238 -0.164106,0.15994 -0.383966,0.34595 -0.640677,0.5452 h -8.723169 c 9.013085,-5.017078 10.448363,-5.520261 13.792095,-5.690396 0.34219,-0.01742 0.659732,-0.02768 0.953675,-0.03051 z m 18.157631,6.444065 h 32.283065 l 1.53673,1.08475 h 31.36837 c -0.76002,39.70818 -32.74964,71.6963 -72.457657,72.4571 v -31.36781 l -1.084746,-1.53673 v -36.28928 c 1.964658,-1.06229 4.917684,-2.59363 8.354238,-4.34803 z"
     style="color:#000000;font-style:normal;font-variant:normal;font-weight:normal;font-stretch:normal;font-size:medium;line-height:normal;font-family:sans-serif;font-variant-ligatures:normal;font-variant-position:normal;font-variant-caps:normal;font-variant-numeric:normal;font-variant-alternates:normal;font-variant-east-asian:normal;font-feature-settings:normal;font-variation-settings:normal;text-indent:0;text-align:start;text-decoration:none;text-decoration-line:none;text-decoration-style:solid;text-decoration-color:#000000;letter-spacing:normal;word-spacing:normal;text-transform:none;writing-mode:lr-tb;direction:ltr;text-orientation:mixed;dominant-baseline:auto;baseline-shift:baseline;text-anchor:start;white-space:normal;shape-padding:0;shape-margin:0;inline-size:0;clip-rule:nonzero;display:inline;overflow:visible;visibility:visible;isolation:auto;mix-blend-mode:normal;color-interpolation:sRGB;color-interpolation-filters:linearRGB;solid-color:#000000;solid-opacity:1;vector-effect:none;fill:#517bc5;fill-opacity:1;fill-rule:nonzero;stroke:none;stroke-width:5.46643;stroke-linecap:butt;stroke-linejoin:miter;stroke-miterlimit:4;stroke-dasharray:none;stroke-dashoffset:0;stroke-opacity:1;color-rendering:auto;image-rendering:auto;shape-rendering:auto;text-rendering:auto;enable-background:accumulate;stop-color:#000000"
     id="path838" />
</svg>
