<?xml version="1.0" encoding="UTF-8" standalone="no"?>
<svg
   xmlns:dc="http://purl.org/dc/elements/1.1/"
   xmlns:cc="http://creativecommons.org/ns#"
   xmlns:rdf="http://www.w3.org/1999/02/22-rdf-syntax-ns#"
   xmlns:svg="http://www.w3.org/2000/svg"
   xmlns="http://www.w3.org/2000/svg"
   xmlns:sodipodi="http://sodipodi.sourceforge.net/DTD/sodipodi-0.dtd"
   xmlns:inkscape="http://www.inkscape.org/namespaces/inkscape"
   sodipodi:docname="hamburger.svg"
   inkscape:version="1.0 (4035a4fb49, 2020-05-01)"
   id="svg8"
   version="1.1"
   viewBox="0 0 39 28"
   height="28mm"
   width="39mm">
  <defs
     id="defs2" />
  <sodipodi:namedview
     inkscape:window-maximized="1"
     inkscape:window-y="-9"
     inkscape:window-x="-9"
     inkscape:window-height="1001"
     inkscape:window-width="1920"
     showgrid="false"
     inkscape:document-rotation="0"
     inkscape:current-layer="layer1"
     inkscape:document-units="mm"
     inkscape:cy="73.150266"
     inkscape:cx="159.34583"
     inkscape:zoom="3.959798"
     inkscape:pageshadow="2"
     inkscape:pageopacity="0.0"
     borderopacity="1.0"
     bordercolor="#666666"
     pagecolor="#ffffff"
     id="base" />
  <metadata
     id="metadata5">
    <rdf:RDF>
      <cc:Work
         rdf:about="">
        <dc:format>image/svg+xml</dc:format>
        <dc:type
           rdf:resource="http://purl.org/dc/dcmitype/StillImage" />
        <dc:title></dc:title>
      </cc:Work>
    </rdf:RDF>
  </metadata>
  <g
     id="layer1"
     inkscape:groupmode="layer"
     inkscape:label="Layer 1">
    <path
       transform="scale(0.26458333)"
       d="M 11.220703 1.7402344 C 5.8543587 1.7402344 1.5332031 6.0613896 1.5332031 11.427734 C 1.5332031 16.794079 5.8543587 21.113281 11.220703 21.113281 L 136.11523 21.113281 C 141.48158 21.113281 145.80078 16.794079 145.80078 11.427734 C 145.80078 6.0613896 141.48158 1.7402344 136.11523 1.7402344 L 11.220703 1.7402344 z M 11.220703 43.103516 C 5.8543587 43.103516 1.5332031 47.424672 1.5332031 52.791016 C 1.5332031 58.157359 5.8543587 62.476562 11.220703 62.476562 L 136.11523 62.476562 C 141.48158 62.476563 145.80078 58.157359 145.80078 52.791016 C 145.80078 47.424672 141.48158 43.103516 136.11523 43.103516 L 11.220703 43.103516 z M 11.220703 84.46875 C 5.8543587 84.46875 1.5332031 88.78795 1.5332031 94.154297 C 1.5332031 99.52064 5.8543587 103.8418 11.220703 103.8418 L 136.11523 103.8418 C 141.48158 103.8418 145.80078 99.52064 145.80078 94.154297 C 145.80078 88.78795 141.48158 84.46875 136.11523 84.46875 L 11.220703 84.46875 z "
       style="fill:#333333;stroke-width:7.71118"
       id="rect833" />
  </g>
</svg>
