<?xml version="1.0" encoding="UTF-8" standalone="no"?>
<svg
   xmlns:dc="http://purl.org/dc/elements/1.1/"
   xmlns:cc="http://creativecommons.org/ns#"
   xmlns:rdf="http://www.w3.org/1999/02/22-rdf-syntax-ns#"
   xmlns:svg="http://www.w3.org/2000/svg"
   xmlns="http://www.w3.org/2000/svg"
   xmlns:sodipodi="http://sodipodi.sourceforge.net/DTD/sodipodi-0.dtd"
   xmlns:inkscape="http://www.inkscape.org/namespaces/inkscape"
   sodipodi:docname="highlight placeholder.svg"
   inkscape:version="1.0 (4035a4fb49, 2020-05-01)"
   id="svg8"
   version="1.1"
   viewBox="0 0 50 34"
   height="34mm"
   width="50mm">
  <defs
     id="defs2" />
  <sodipodi:namedview
     inkscape:window-maximized="1"
     inkscape:window-y="-9"
     inkscape:window-x="-9"
     inkscape:window-height="1001"
     inkscape:window-width="1920"
     showgrid="false"
     inkscape:document-rotation="0"
     inkscape:current-layer="layer1"
     inkscape:document-units="mm"
     inkscape:cy="114.8509"
     inkscape:cx="255.41126"
     inkscape:zoom="2"
     inkscape:pageshadow="2"
     inkscape:pageopacity="0.0"
     borderopacity="1.0"
     bordercolor="#666666"
     pagecolor="#ffffff"
     id="base" />
  <metadata
     id="metadata5">
    <rdf:RDF>
      <cc:Work
         rdf:about="">
        <dc:format>image/svg+xml</dc:format>
        <dc:type
           rdf:resource="http://purl.org/dc/dcmitype/StillImage" />
        <dc:title></dc:title>
      </cc:Work>
    </rdf:RDF>
  </metadata>
  <g
     id="layer1"
     inkscape:groupmode="layer"
     inkscape:label="Layer 1">
    <g
       transform="translate(-24.209375,-3.571875)"
       style="font-style:normal;font-weight:normal;font-size:10.5833px;line-height:1.25;font-family:sans-serif;fill:#999999;fill-opacity:1;stroke:none;stroke-width:0.264583"
       id="text835"
       aria-label="Click">
      <path
         id="path851"
         style="font-style:normal;font-variant:normal;font-weight:bold;font-stretch:normal;font-size:10.5833px;font-family:sans-serif;-inkscape-font-specification:'sans-serif, Bold';font-variant-ligatures:normal;font-variant-caps:normal;font-variant-numeric:normal;font-variant-east-asian:normal;fill:#999999"
         d="m 39.716914,13.379027 q -0.857826,0 -1.586462,-0.253214 -0.723468,-0.253213 -1.245398,-0.754473 -0.52193,-0.50126 -0.811317,-1.250566 -0.28422,-0.749306 -0.28422,-1.7311547 0,-0.9146699 0.273885,-1.6588082 0.273884,-0.7441382 0.795814,-1.2764038 0.50126,-0.511595 1.24023,-0.7906469 0.744139,-0.2790518 1.622635,-0.2790518 0.485757,0 0.873329,0.056844 0.39274,0.051676 0.723468,0.1395259 0.346231,0.098185 0.625283,0.222208 0.284219,0.1188554 0.496092,0.2222079 V 7.8910076 H 42.212877 Q 42.068184,7.7669845 41.845976,7.5964528 41.628936,7.4259212 41.349884,7.2605571 41.065664,7.095193 40.734936,6.9815053 40.404208,6.8678175 40.026971,6.8678175 q -0.418578,0 -0.795814,0.1343583 -0.377237,0.1291906 -0.69763,0.4340806 -0.30489,0.2945547 -0.496092,0.7803117 Q 37.8514,8.702325 37.8514,9.394787 q 0,0.723468 0.201538,1.209225 0.206705,0.485757 0.516763,0.764808 0.315225,0.28422 0.702797,0.408243 0.387572,0.118855 0.764809,0.118855 0.361733,0 0.713132,-0.10852 0.356566,-0.10852 0.656289,-0.294555 0.253213,-0.149861 0.470254,-0.320392 0.21704,-0.170532 0.356566,-0.294555 h 0.206705 v 1.839675 q -0.289387,0.129191 -0.552936,0.242878 -0.263549,0.113688 -0.552936,0.19637 -0.377237,0.10852 -0.707965,0.165364 -0.330728,0.05684 -0.909502,0.05684 z" />
      <path
         id="path853"
         style="font-style:normal;font-variant:normal;font-weight:bold;font-stretch:normal;font-size:10.5833px;font-family:sans-serif;-inkscape-font-specification:'sans-serif, Bold';font-variant-ligatures:normal;font-variant-caps:normal;font-variant-numeric:normal;font-variant-east-asian:normal;fill:#999999"
         d="M 45.664852,13.229166 H 43.804506 V 5.1883388 h 1.860346 z" />
      <path
         id="path855"
         style="font-style:normal;font-variant:normal;font-weight:bold;font-stretch:normal;font-size:10.5833px;font-family:sans-serif;-inkscape-font-specification:'sans-serif, Bold';font-variant-ligatures:normal;font-variant-caps:normal;font-variant-numeric:normal;font-variant-east-asian:normal;fill:#999999"
         d="M 49.282191,13.229166 H 47.421845 V 7.4259212 h 1.860346 z m 0.05168,-6.6300651 H 47.370169 V 5.1883388 h 1.963698 z" />
      <path
         id="path857"
         style="font-style:normal;font-variant:normal;font-weight:bold;font-stretch:normal;font-size:10.5833px;font-family:sans-serif;-inkscape-font-specification:'sans-serif, Bold';font-variant-ligatures:normal;font-variant-caps:normal;font-variant-numeric:normal;font-variant-east-asian:normal;fill:#999999"
         d="m 54.062245,13.384195 q -0.759641,0 -1.390092,-0.180867 -0.625283,-0.180867 -1.090369,-0.558104 -0.459919,-0.377237 -0.713133,-0.950843 -0.253213,-0.573607 -0.253213,-1.343583 0,-0.8113175 0.268716,-1.4004269 0.273884,-0.5891095 0.759641,-0.9766815 0.470254,-0.3669015 1.085202,-0.5374332 0.614948,-0.1705317 1.276404,-0.1705317 0.594277,0 1.095537,0.1291907 0.501259,0.1291907 0.93534,0.3358957 V 9.3172726 H 55.772729 Q 55.664209,9.2242553 55.50918,9.1002322 55.359319,8.9762092 55.137111,8.8573538 54.925238,8.743666 54.672025,8.6713192 q -0.253214,-0.077514 -0.58911,-0.077514 -0.744138,0 -1.147213,0.4754217 -0.397907,0.470254 -0.397907,1.2815711 0,0.837155 0.408242,1.271236 0.41341,0.434081 1.167884,0.434081 0.351399,0 0.63045,-0.07752 0.28422,-0.08268 0.470254,-0.191202 0.1757,-0.103352 0.310058,-0.21704 0.134358,-0.113688 0.248046,-0.222208 h 0.263549 v 1.586461 q -0.439248,0.206705 -0.919837,0.325561 -0.475422,0.124023 -1.054196,0.124023 z" />
      <path
         id="path859"
         style="font-style:normal;font-variant:normal;font-weight:bold;font-stretch:normal;font-size:10.5833px;font-family:sans-serif;-inkscape-font-specification:'sans-serif, Bold';font-variant-ligatures:normal;font-variant-caps:normal;font-variant-numeric:normal;font-variant-east-asian:normal;fill:#999999"
         d="m 63.420817,13.229166 h -2.165236 l -1.627802,-2.526969 -0.506428,0.614947 v 1.912022 H 57.261006 V 5.1883388 h 1.860345 V 9.989064 l 2.00504,-2.5631428 h 2.144565 l -2.087721,2.5011313 z" />
    </g>
    <g
       transform="translate(-24.209375,-3.571875)"
       style="font-style:normal;font-weight:normal;font-size:10.5833px;line-height:1.25;font-family:sans-serif;fill:#999999;fill-opacity:1;stroke:none;stroke-width:0.264583"
       id="text845"
       aria-label="Item">
      <path
         id="path862"
         style="font-style:normal;font-variant:normal;font-weight:bold;font-stretch:normal;font-size:10.5833px;font-family:sans-serif;-inkscape-font-specification:'sans-serif, Bold';font-variant-ligatures:normal;font-variant-caps:normal;font-variant-numeric:normal;font-variant-east-asian:normal;fill:#999999;stroke-width:0.264583"
         d="m 40.430046,24.433134 h -4.50617 v -1.364253 h 1.260901 v -4.96609 h -1.260901 v -1.364253 h 4.50617 v 1.364253 h -1.260901 v 4.96609 h 1.260901 z" />
      <path
         id="path864"
         style="font-style:normal;font-variant:normal;font-weight:bold;font-stretch:normal;font-size:10.5833px;font-family:sans-serif;-inkscape-font-specification:'sans-serif, Bold';font-variant-ligatures:normal;font-variant-caps:normal;font-variant-numeric:normal;font-variant-east-asian:normal;fill:#999999;stroke-width:0.264583"
         d="m 45.664852,24.381458 q -0.299722,0.07751 -0.635618,0.118855 -0.335896,0.04651 -0.821652,0.04651 -1.085202,0 -1.617468,-0.439248 -0.527098,-0.439249 -0.527098,-1.50378 V 19.89079 h -0.764808 v -1.260901 h 0.764808 v -1.658808 h 1.860346 v 1.658808 h 1.74149 v 1.260901 h -1.74149 v 2.056716 q 0,0.30489 0.0052,0.532265 0.0052,0.227376 0.08268,0.408243 0.07235,0.180867 0.253213,0.289387 0.186035,0.103352 0.537434,0.103352 0.144693,0 0.377236,-0.06201 0.237711,-0.06201 0.330729,-0.113688 h 0.155028 z" />
      <path
         id="path866"
         style="font-style:normal;font-variant:normal;font-weight:bold;font-stretch:normal;font-size:10.5833px;font-family:sans-serif;-inkscape-font-specification:'sans-serif, Bold';font-variant-ligatures:normal;font-variant-caps:normal;font-variant-numeric:normal;font-variant-east-asian:normal;fill:#999999;stroke-width:0.264583"
         d="m 52.48612,21.875159 h -4.258125 q 0.04134,0.682127 0.516763,1.04386 0.480589,0.361734 1.410762,0.361734 0.58911,0 1.142046,-0.211872 0.552936,-0.211873 0.873329,-0.454752 H 52.3776 v 1.493445 q -0.630451,0.253213 -1.188554,0.366901 -0.558104,0.113688 -1.235063,0.113688 -1.746658,0 -2.676831,-0.785479 -0.930173,-0.78548 -0.930173,-2.237583 0,-1.4366 0.878497,-2.273756 0.883664,-0.842323 2.418449,-0.842323 1.41593,0 2.129062,0.7183 0.713133,0.713133 0.713133,2.056716 z M 50.63611,20.78479 q -0.0155,-0.583942 -0.289388,-0.878497 -0.273884,-0.294555 -0.852658,-0.294555 -0.537433,0 -0.883664,0.279052 -0.346231,0.279052 -0.387572,0.894 z" />
      <path
         id="path868"
         style="font-style:normal;font-variant:normal;font-weight:bold;font-stretch:normal;font-size:10.5833px;font-family:sans-serif;-inkscape-font-specification:'sans-serif, Bold';font-variant-ligatures:normal;font-variant-caps:normal;font-variant-numeric:normal;font-variant-east-asian:normal;fill:#999999;stroke-width:0.264583"
         d="m 59.472751,20.319703 v 4.113431 H 57.60207 v -2.899039 q 0,-0.423745 -0.02067,-0.7183 -0.02067,-0.299722 -0.113688,-0.485757 -0.09302,-0.186034 -0.28422,-0.268716 -0.186034,-0.08785 -0.527097,-0.08785 -0.273885,0 -0.532266,0.113688 -0.258381,0.10852 -0.465086,0.232543 v 4.113431 h -1.860346 v -5.803245 h 1.860346 v 0.640786 q 0.480589,-0.377237 0.919837,-0.58911 0.439248,-0.211872 0.971514,-0.211872 0.573607,0 1.012855,0.258381 0.439248,0.253214 0.687294,0.749306 0.558104,-0.470254 1.085202,-0.738971 0.527098,-0.268716 1.033525,-0.268716 0.940508,0 1.426265,0.563271 0.490925,0.563271 0.490925,1.622635 v 3.777535 h -1.870681 v -2.899039 q 0,-0.428913 -0.02067,-0.723467 -0.0155,-0.294555 -0.10852,-0.48059 -0.08785,-0.186034 -0.279052,-0.268716 -0.191202,-0.08785 -0.537433,-0.08785 -0.232543,0 -0.454751,0.08268 -0.222208,0.07752 -0.542601,0.263549 z" />
    </g>
    <g
       transform="translate(-24.209375,-3.571875)"
       style="font-style:normal;font-variant:normal;font-weight:bold;font-stretch:normal;font-size:10.5833px;line-height:1.25;font-family:sans-serif;-inkscape-font-specification:'sans-serif, Bold';font-variant-ligatures:normal;font-variant-caps:normal;font-variant-numeric:normal;font-variant-east-asian:normal;fill:#999999;fill-opacity:1;stroke:none;stroke-width:0.264583"
       id="text849"
       aria-label="to Show">
      <path
         id="path871"
         style="font-style:normal;font-variant:normal;font-weight:bold;font-stretch:normal;font-size:10.5833px;font-family:sans-serif;-inkscape-font-specification:'sans-serif, Bold';font-variant-ligatures:normal;font-variant-caps:normal;font-variant-numeric:normal;font-variant-east-asian:normal;fill:#999999;stroke-width:0.264583"
         d="m 29.988854,35.931657 q -0.299722,0.07751 -0.635618,0.118856 -0.335896,0.04651 -0.821653,0.04651 -1.085201,0 -1.617467,-0.439248 -0.527098,-0.439248 -0.527098,-1.503779 V 31.44099 h -0.764809 v -1.260901 h 0.764809 v -1.658808 h 1.860346 v 1.658808 h 1.74149 v 1.260901 h -1.74149 v 2.056715 q 0,0.30489 0.0052,0.532266 0.0052,0.227375 0.08268,0.408242 0.07235,0.180867 0.253213,0.289387 0.186035,0.103353 0.537433,0.103353 0.144694,0 0.377237,-0.06201 0.237711,-0.06201 0.330728,-0.113687 h 0.155029 z" />
      <path
         id="path873"
         style="font-style:normal;font-variant:normal;font-weight:bold;font-stretch:normal;font-size:10.5833px;font-family:sans-serif;-inkscape-font-specification:'sans-serif, Bold';font-variant-ligatures:normal;font-variant-caps:normal;font-variant-numeric:normal;font-variant-east-asian:normal;fill:#999999;stroke-width:0.264583"
         d="m 37.027162,33.084295 q 0,1.431433 -0.837156,2.258253 -0.831987,0.821653 -2.340934,0.821653 -1.508947,0 -2.346103,-0.821653 -0.831988,-0.82682 -0.831988,-2.258253 0,-1.441768 0.837156,-2.263421 0.842323,-0.821652 2.340935,-0.821652 1.519282,0 2.346102,0.82682 0.831988,0.82682 0.831988,2.258253 z m -2.289259,1.410762 q 0.180867,-0.222208 0.268717,-0.532265 0.09302,-0.315226 0.09302,-0.868162 0,-0.511595 -0.09302,-0.857826 -0.09302,-0.346231 -0.258381,-0.552936 -0.165364,-0.211873 -0.397908,-0.299722 -0.232543,-0.08785 -0.501259,-0.08785 -0.268717,0 -0.48059,0.07235 -0.206705,0.07235 -0.397907,0.289387 -0.170532,0.201537 -0.273884,0.552936 -0.09819,0.351399 -0.09819,0.883664 0,0.475422 0.08785,0.826821 0.08785,0.34623 0.258381,0.558103 0.165364,0.201538 0.392739,0.294555 0.232544,0.09302 0.527098,0.09302 0.253214,0 0.48059,-0.08268 0.232543,-0.08785 0.392739,-0.289387 z" />
      <path
         id="path875"
         style="font-style:normal;font-variant:normal;font-weight:bold;font-stretch:normal;font-size:10.5833px;font-family:sans-serif;-inkscape-font-specification:'sans-serif, Bold';font-variant-ligatures:normal;font-variant-caps:normal;font-variant-numeric:normal;font-variant-east-asian:normal;fill:#999999;stroke-width:0.264583"
         d="m 48.251247,33.564884 q 0,1.136878 -0.966346,1.850011 -0.961179,0.707965 -2.614819,0.707965 -0.956011,0 -1.669144,-0.165365 -0.707965,-0.170531 -1.32808,-0.428913 V 33.68374 h 0.21704 q 0.614948,0.490924 1.374589,0.754473 0.764809,0.263549 1.467606,0.263549 0.180867,0 0.475422,-0.03101 0.294554,-0.03101 0.480589,-0.103352 0.227376,-0.09302 0.372069,-0.232543 0.149861,-0.139526 0.149861,-0.41341 0,-0.253214 -0.21704,-0.434081 -0.211873,-0.186035 -0.625283,-0.28422 -0.43408,-0.103352 -0.919837,-0.191202 -0.48059,-0.09302 -0.904335,-0.232543 -0.971514,-0.315225 -1.400427,-0.852658 -0.423745,-0.542601 -0.423745,-1.343583 0,-1.074867 0.961178,-1.751826 0.966346,-0.682127 2.480461,-0.682127 0.759641,0 1.498612,0.149862 0.744138,0.144693 1.286739,0.366901 v 1.772496 h -0.211873 q -0.465086,-0.372069 -1.142045,-0.620115 -0.671792,-0.253214 -1.374589,-0.253214 -0.248046,0 -0.496092,0.03617 -0.242879,0.03101 -0.470254,0.124023 -0.201538,0.07751 -0.346231,0.23771 -0.144694,0.155029 -0.144694,0.356567 0,0.30489 0.232543,0.470254 0.232544,0.160196 0.878497,0.294554 0.423745,0.08785 0.811317,0.170532 0.39274,0.08268 0.842324,0.227376 0.883664,0.289387 1.302242,0.790647 0.423745,0.496092 0.423745,1.291906 z" />
      <path
         id="path877"
         style="font-style:normal;font-variant:normal;font-weight:bold;font-stretch:normal;font-size:10.5833px;font-family:sans-serif;-inkscape-font-specification:'sans-serif, Bold';font-variant-ligatures:normal;font-variant-caps:normal;font-variant-numeric:normal;font-variant-east-asian:normal;fill:#999999;stroke-width:0.264583"
         d="M 55.341231,35.983334 H 53.47055 v -2.878369 q 0,-0.351398 -0.03617,-0.697629 -0.03617,-0.351399 -0.124023,-0.516763 -0.103353,-0.191202 -0.30489,-0.279052 -0.19637,-0.08785 -0.552936,-0.08785 -0.253214,0 -0.516763,0.08268 -0.258381,0.08268 -0.563271,0.263549 v 4.113431 h -1.860346 v -8.040828 h 1.860346 v 2.878368 q 0.496092,-0.387572 0.950843,-0.594277 0.459919,-0.206705 1.018023,-0.206705 0.940508,0 1.467606,0.547769 0.532265,0.547768 0.532265,1.638137 z" />
      <path
         id="path879"
         style="font-style:normal;font-variant:normal;font-weight:bold;font-stretch:normal;font-size:10.5833px;font-family:sans-serif;-inkscape-font-specification:'sans-serif, Bold';font-variant-ligatures:normal;font-variant-caps:normal;font-variant-numeric:normal;font-variant-east-asian:normal;fill:#999999;stroke-width:0.264583"
         d="m 62.989319,33.084295 q 0,1.431433 -0.837156,2.258253 -0.831988,0.821653 -2.340935,0.821653 -1.508947,0 -2.346102,-0.821653 -0.831988,-0.82682 -0.831988,-2.258253 0,-1.441768 0.837155,-2.263421 0.842324,-0.821652 2.340935,-0.821652 1.519283,0 2.346103,0.82682 0.831988,0.82682 0.831988,2.258253 z m -2.289259,1.410762 q 0.180867,-0.222208 0.268717,-0.532265 0.09302,-0.315226 0.09302,-0.868162 0,-0.511595 -0.09302,-0.857826 -0.09302,-0.346231 -0.258382,-0.552936 -0.165364,-0.211873 -0.397907,-0.299722 -0.232543,-0.08785 -0.50126,-0.08785 -0.268716,0 -0.480589,0.07235 -0.206705,0.07235 -0.397907,0.289387 -0.170532,0.201537 -0.273884,0.552936 -0.09819,0.351399 -0.09819,0.883664 0,0.475422 0.08785,0.826821 0.08785,0.34623 0.258382,0.558103 0.165364,0.201538 0.392739,0.294555 0.232543,0.09302 0.527098,0.09302 0.253214,0 0.480589,-0.08268 0.232544,-0.08785 0.39274,-0.289387 z" />
      <path
         id="path881"
         style="font-style:normal;font-variant:normal;font-weight:bold;font-stretch:normal;font-size:10.5833px;font-family:sans-serif;-inkscape-font-specification:'sans-serif, Bold';font-variant-ligatures:normal;font-variant-caps:normal;font-variant-numeric:normal;font-variant-east-asian:normal;fill:#999999;stroke-width:0.264583"
         d="m 73.588123,30.180089 -1.798334,5.803245 H 69.815755 L 68.632369,32.07144 67.469653,35.983334 H 65.469781 L 63.68695,30.180089 h 1.953363 l 0.992184,3.999743 1.240231,-3.999743 h 1.648473 l 1.178218,3.999743 0.976682,-3.999743 z" />
    </g>
  </g>
</svg>
