<?xml version="1.0" encoding="UTF-8" standalone="no"?>
<svg
   xmlns:dc="http://purl.org/dc/elements/1.1/"
   xmlns:cc="http://creativecommons.org/ns#"
   xmlns:rdf="http://www.w3.org/1999/02/22-rdf-syntax-ns#"
   xmlns:svg="http://www.w3.org/2000/svg"
   xmlns="http://www.w3.org/2000/svg"
   id="svg8"
   version="1.1"
   viewBox="0 0 72 72"
   height="72mm"
   width="72mm">
  <defs
     id="defs2" />
  <metadata
     id="metadata5">
    <rdf:RDF>
      <cc:Work
         rdf:about="">
        <dc:format>image/svg+xml</dc:format>
        <dc:type
           rdf:resource="http://purl.org/dc/dcmitype/StillImage" />
        <dc:title></dc:title>
      </cc:Work>
    </rdf:RDF>
  </metadata>
  <g
     id="layer1">
    <path
       d="M 36.152879,2.1300522 A 34.094195,34.094195 0 0 0 2.0712388,36.224096 34.094195,34.094195 0 0 0 36.16528,70.318137 34.094195,34.094195 0 0 0 70.259324,36.224096 34.094195,34.094195 0 0 0 36.16528,2.1300522 a 34.094195,34.094195 0 0 0 -0.0124,0 z m 0.25373,10.8448158 c 6.207948,0 12.41583,0.184568 13.614673,0.554488 4.657521,1.43713 7.348381,4.12799 8.78551,8.78551 0.739844,2.397691 0.739844,24.831656 0,27.229344 -1.42204,4.608621 -4.12537,7.341738 -8.641849,8.73642 -2.386849,0.737039 -16.177588,1.122998 -23.283333,0.65164 -7.536678,-0.499941 -11.758677,-3.883599 -13.098941,-10.498069 -0.655551,-3.235269 -0.461188,-24.115365 0.244429,-26.262996 1.513404,-4.606229 4.167783,-7.223369 8.764839,-8.641849 1.198846,-0.36992 7.406727,-0.554488 13.614672,-0.554488 z m 0,4.301546 c -13.616146,0 -13.659588,0.007 -16.153018,2.500106 -2.496606,2.496621 -2.500106,2.519592 -2.500106,16.28531 0,18.64238 -0.08444,18.558986 18.802987,18.621086 6.09696,0.0201 10.398014,-0.07681 11.368815,-0.256315 6.36329,-1.176311 7.266739,-3.476583 7.266739,-18.497063 0,-12.72517 -0.262573,-14.16612 -3.024103,-16.596919 -2.275679,-2.0031 -2.68106,-2.056205 -15.761314,-2.056205 z m 12.369271,3.45457 a 2.8063301,2.8063301 0 0 1 2.806031,2.806548 2.8063301,2.8063301 0 0 1 -2.806031,2.806546 2.8063301,2.8063301 0 0 1 -2.806546,-2.806546 2.8063301,2.8063301 0 0 1 2.806546,-2.806548 z m -12.594063,3.365168 c 5.485164,-0.07642 10.843453,3.696369 11.919688,9.972519 1.401831,8.17482 -6.37408,15.374029 -14.473021,13.399698 -8.936513,-2.1785 -12.077485,-13.386588 -5.573818,-19.890258 2.345542,-2.345529 5.253969,-3.441957 8.127151,-3.481959 z m 0.209806,4.197162 c -1.819563,0.01566 -3.696589,0.72209 -5.297868,2.323372 -5.692958,5.692958 -0.07537,14.871851 7.690488,12.565639 1.988478,-0.590518 4.284127,-2.886167 4.874638,-4.874635 1.657725,-5.582161 -2.617256,-10.054378 -7.267258,-10.014376 z"
       style="fill:#ffffff;fill-opacity:1;stroke-width:0.264999;stroke-linejoin:round"
       id="path905" />
  </g>
</svg>
