<?xml version="1.0" encoding="UTF-8" standalone="no"?>
<svg
   xmlns:dc="http://purl.org/dc/elements/1.1/"
   xmlns:cc="http://creativecommons.org/ns#"
   xmlns:rdf="http://www.w3.org/1999/02/22-rdf-syntax-ns#"
   xmlns:svg="http://www.w3.org/2000/svg"
   xmlns="http://www.w3.org/2000/svg"
   xmlns:sodipodi="http://sodipodi.sourceforge.net/DTD/sodipodi-0.dtd"
   xmlns:inkscape="http://www.inkscape.org/namespaces/inkscape"
   inkscape:version="1.0 (4035a4fb49, 2020-05-01)"
   sodipodi:docname="logo blue.svg"
   width="591mm"
   height="149mm"
   viewBox="0 0 591 149"
   version="1.1"
   id="svg8">
  <sodipodi:namedview
     inkscape:current-layer="svg8"
     inkscape:window-maximized="1"
     inkscape:window-y="-9"
     inkscape:window-x="-9"
     inkscape:cy="472.17098"
     inkscape:cx="1028.3915"
     inkscape:zoom="0.50511364"
     showgrid="false"
     id="namedview24"
     inkscape:window-height="1001"
     inkscape:window-width="1920"
     inkscape:pageshadow="2"
     inkscape:pageopacity="0"
     guidetolerance="10"
     gridtolerance="10"
     objecttolerance="10"
     borderopacity="1"
     bordercolor="#666666"
     pagecolor="#ffffff"
     inkscape:document-rotation="0" />
  <defs
     id="defs2" />
  <metadata
     id="metadata5">
    <rdf:RDF>
      <cc:Work
         rdf:about="">
        <dc:format>image/svg+xml</dc:format>
        <dc:type
           rdf:resource="http://purl.org/dc/dcmitype/StillImage" />
        <dc:title></dc:title>
      </cc:Work>
    </rdf:RDF>
  </metadata>
  <path
     d="m 84.138015,2.4453187 c -40.074318,0 -72.615722,32.5408943 -72.615721,72.6152043 10e-7,10.468414 2.224412,20.420912 6.219775,29.415257 1.145862,-0.7776 2.253322,-1.50904 3.270601,-2.15129 0.286965,-0.18117 0.615042,-0.38055 0.971517,-0.59221 C 18.63678,93.932318 16.711666,85.374249 16.539559,76.382405 h 28.692305 l 1.405599,-0.992187 h 37.169822 v 37.169822 l -0.992187,1.4056 v 28.69127 c -18.10485,-0.34678 -34.454171,-7.79223 -46.386831,-19.67063 -1.081114,1.11447 -2.213396,2.28285 -3.459221,3.57239 13.131321,13.04726 31.215713,21.11551 51.168969,21.11551 40.074315,0 72.615195,-32.53934 72.615205,-72.613657 0,-10.433581 -2.21026,-20.35389 -6.1805,-29.324823 -1.86829,0.865785 -3.50176,1.622001 -4.52892,2.086176 3.49928,7.951179 5.51555,16.705048 5.69215,25.914696 h -28.69178 l -1.4056,0.992188 H 84.468744 V 37.558937 l 0.992187,-1.405599 V 7.4620647 c 24.419629,0.4679024 45.647329,13.8494213 57.147929,33.6067343 0.86513,-0.398944 1.67381,-0.771734 2.76159,-1.273307 0.59941,-0.276381 1.18071,-0.548802 1.77819,-0.825273 C 134.61562,17.153609 111.07961,2.4453187 84.138015,2.4453187 Z m -1.322917,5.016746 V 36.153338 l 0.992187,1.405599 V 74.72876 H 46.637463 L 45.231864,73.736572 H 16.539559 C 17.236006,37.41757 46.495906,8.1577681 82.815098,7.4620647 Z m 1.653646,67.9281533 h 37.169826 l 1.4056,0.992187 h 28.69178 c -0.69517,36.319975 -29.95519,65.578625 -66.275019,66.274505 v -28.69127 l -0.992187,-1.4056 z"
     style="color:#000000;font-style:normal;font-variant:normal;font-weight:normal;font-stretch:normal;font-size:medium;line-height:normal;font-family:sans-serif;font-variant-ligatures:normal;font-variant-position:normal;font-variant-caps:normal;font-variant-numeric:normal;font-variant-alternates:normal;font-variant-east-asian:normal;font-feature-settings:normal;font-variation-settings:normal;text-indent:0;text-align:start;text-decoration:none;text-decoration-line:none;text-decoration-style:solid;text-decoration-color:#000000;letter-spacing:normal;word-spacing:normal;text-transform:none;writing-mode:lr-tb;direction:ltr;text-orientation:mixed;dominant-baseline:auto;baseline-shift:baseline;text-anchor:start;white-space:normal;shape-padding:0;shape-margin:0;inline-size:0;clip-rule:nonzero;display:inline;overflow:visible;visibility:visible;isolation:auto;mix-blend-mode:normal;color-interpolation:sRGB;color-interpolation-filters:linearRGB;solid-color:#000000;solid-opacity:1;vector-effect:none;fill:#333333;fill-opacity:1;fill-rule:nonzero;stroke:none;stroke-width:4.99999;stroke-linecap:butt;stroke-linejoin:miter;stroke-miterlimit:4;stroke-dasharray:none;stroke-dashoffset:0;stroke-opacity:1;color-rendering:auto;image-rendering:auto;shape-rendering:auto;text-rendering:auto;enable-background:accumulate;stop-color:#000000"
     id="path838" />
  <path
     id="path876"
     d="m 11.83149,140.52659 c -0.899189,-1.49746 -3.5134395,-6.80525 -5.8097005,-11.79497 -3.096386,-6.72909 -3.980812,-9.42415 -3.423138,-10.4346 0.914712,-1.65751 12.0649805,-10.19027 19.2148525,-14.70425 2.869,-1.81132 9.671715,-5.383347 15.1171,-7.937837 7.993255,-3.74972 10.389308,-4.54635 12.436583,-4.13492 2.393411,0.48099 2.914318,0.1004 9.273823,-6.77374 3.705881,-4.00585 7.662372,-7.77141 8.792214,-8.36786 1.129854,-0.59647 2.545551,-1.56328 3.145969,-2.14846 0.600451,-0.585174 2.230114,-1.054901 3.621579,-1.043521 3.197017,0.0262 4.901334,-1.00074 4.312186,-2.59722 -0.33434,-0.906 -1.37931,-1.19265 -3.883236,-1.06521 -3.425813,0.17431 -4.596351,0.69235 -15.851817,7.014721 -6.661209,3.74165 -7.044505,3.67918 -9.115732,-1.48526 -1.130413,-2.818951 -1.116926,-3.045861 0.205785,-3.431491 0.779116,-0.22692 3.315914,-1.26085 5.637414,-2.29736 2.32121,-1.03704 4.913925,-1.875489 5.760979,-1.864599 0.847032,0.01119 4.755653,-1.403344 8.685752,-3.142793 5.777656,-2.557168 7.076549,-3.441818 6.784516,-4.620415 -0.235153,-0.948715 0.272412,-1.78648 1.453908,-2.399276 1.5155,-0.785955 1.974076,-0.718174 2.778185,0.411803 0.87789,1.233585 1.678697,1.005718 9.051162,-2.575793 4.448472,-2.160922 8.092842,-4.299035 8.098652,-4.751097 0.008,-0.626037 9.587154,-5.407836 10.801944,-5.392211 0.27691,0.0034 3.50506,7.005857 3.499,7.586319 -0.0112,0.863888 -9.70129,5.069074 -11.6237,5.044418 -1.128534,-0.01455 -3.121624,0.509389 -4.429074,1.164292 -2.1123,1.058166 -2.27751,1.388421 -1.482863,2.965815 0.49202,0.976316 0.976433,1.878258 1.076503,2.004307 0.19206,0.241578 6.499254,-2.519819 20.410144,-8.93635 4.62475,-2.132236 17.95685,-8.28128 29.62779,-13.662712 11.67094,-5.381422 24.2107,-11.348823 25.94321,-12.075783 l 6.02478,-2.750551 0.87143,-1.097563 c 0.50909,-0.64117 3.42547,-1.674354 3.42547,-1.674354 l 1.2084,1.104066 1.6092,3.548202 -18.38683,8.43052 c -23.21818,10.661126 -20.10888,9.391714 -25.78365,11.760838 -3.6315,1.520246 -4.52971,2.234882 -4.19497,3.338557 0.53722,1.771224 -1.61916,3.933009 -3.89627,3.906169 -1.37404,-0.01623 -49.400327,23.770292 -50.854101,25.187072 -0.20744,0.20228 0.05563,1.45237 0.584995,2.77813 1.700813,4.26028 0.551742,6.0629 -5.011389,7.86208 -6.294298,2.03566 -8.150473,1.99177 -9.582612,-0.22668 l -1.15188,-1.78427 -2.628061,2.56118 c -2.517323,2.45325 -2.615045,2.7697 -2.319721,7.51052 0.169509,2.722107 0.558457,5.547837 0.864201,6.279337 0.850759,2.03609 -7.488408,3.68711 -10.428256,2.06467 -2.259741,-1.24709 -2.315636,-1.19606 -28.310113,25.83842 -4.300837,4.4729 -8.426232,8.4472 -9.167652,8.83176 -1.055212,0.54737 -1.702918,0.10801 -2.982582,-2.02355 z M 87.950718,67.800856 c 4.708368,-2.083508 5.166268,-2.485238 4.436138,-3.892753 -0.56324,-1.085565 -1.24211,-1.395226 -2.202453,-1.004331 -4.378658,1.782182 -9.793635,4.235063 -9.79622,4.437411 -0.01209,0.937239 1.057192,2.766739 1.62147,2.773979 0.379949,0.004 3.053373,-1.03658 5.941021,-2.314395 z"
     style="fill:#333333;fill-opacity:1;stroke-width:0.795927" />
  <path
     d="m 224.90858,74.321093 q -5.15306,0 -9.46724,-1.142781 -4.3142,-1.238007 -7.54983,-3.428341 -3.1158,-2.190334 -4.79354,-5.14252 h 1.31822 v 8.761326 H 197.5854 V 55.274739 h 6.35143 q 0.35952,4.190199 2.75629,7.42808 2.51661,3.23788 6.95063,5.047283 4.55388,1.809403 11.02515,1.809403 6.8308,0 10.54578,-2.571255 3.715,-2.571256 3.715,-7.142385 0,-3.618808 -1.55789,-5.618675 -1.43807,-2.0951 -5.03322,-3.237881 -3.47532,-1.238013 -9.46724,-1.904636 l -4.43404,-0.571391 q -9.70692,-1.238013 -15.45916,-4.856821 -5.63241,-3.714039 -5.63241,-10.475496 0,-4.571126 2.51661,-7.809007 2.63645,-3.237882 7.42999,-4.952054 4.79354,-1.714172 11.26481,-1.714172 7.42999,0 12.94257,2.571258 5.51257,2.571259 7.31014,6.85669 h -2.15709 v -8.380398 h 6.71096 v 14.951391 h -6.2316 q -0.35952,-2.571258 -2.15709,-5.142516 -1.67775,-2.66649 -5.51258,-4.380662 -3.83484,-1.714173 -10.54579,-1.714173 -6.71095,0 -10.42594,2.571259 -3.59516,2.476026 -3.59516,6.570993 0,4.571126 3.95466,6.856689 3.95468,2.190331 11.14499,3.23788 l 4.31419,0.476159 q 7.54982,1.04755 12.4632,2.856954 4.91338,1.714172 7.31015,4.856821 2.39677,3.047417 2.39677,7.99947 0,4.190199 -2.51661,7.713772 -2.51661,3.523583 -7.31015,5.618675 -4.79354,2.095099 -11.74417,2.095099 z"
     style="font-style:normal;font-variant:normal;font-weight:normal;font-stretch:normal;font-size:106.829px;line-height:1.25;font-family:Rokkitt;-inkscape-font-specification:'Rokkitt, @wght=349';font-variant-ligatures:normal;font-variant-caps:normal;font-variant-numeric:normal;font-variant-east-asian:normal;font-variation-settings:'wght' 349;fill:#333333;fill-opacity:1;stroke:none;stroke-width:2.67074"
     id="path1089" />
  <path
     d="m 257.66007,73.368777 v -4.380659 h 9.34741 V 24.133944 h -9.34741 v -4.380662 h 18.81465 l 41.1046,44.758945 V 24.133944 h -9.46724 v -4.380662 h 25.04626 v 4.380662 h -8.9879 v 49.234833 h -8.38869 l -42.18316,-46.47311 v 42.092451 h 9.3474 v 4.380659 z"
     style="font-style:normal;font-variant:normal;font-weight:normal;font-stretch:normal;font-size:106.829px;line-height:1.25;font-family:Rokkitt;-inkscape-font-specification:'Rokkitt, @wght=349';font-variant-ligatures:normal;font-variant-caps:normal;font-variant-numeric:normal;font-variant-east-asian:normal;font-variation-settings:'wght' 349;fill:#333333;fill-opacity:1;stroke:none;stroke-width:2.67074"
     id="path1091" />
  <path
     d="m 342.52071,73.368777 v -4.380659 h 9.58708 V 24.133944 h -9.58708 v -4.380662 h 27.56286 v 4.380662 h -9.58708 v 44.854174 h 9.58708 v 4.380659 z"
     style="font-style:normal;font-variant:normal;font-weight:normal;font-stretch:normal;font-size:106.829px;line-height:1.25;font-family:Rokkitt;-inkscape-font-specification:'Rokkitt, @wght=349';font-variant-ligatures:normal;font-variant-caps:normal;font-variant-numeric:normal;font-variant-east-asian:normal;font-variation-settings:'wght' 349;fill:#333333;fill-opacity:1;stroke:none;stroke-width:2.67074"
     id="path1093" />
  <path
     d="m 381.70603,73.368777 v -4.380659 h 9.46724 V 24.133944 h -9.46724 v -4.380662 h 33.9143 q 11.62433,0 17.7361,3.904503 6.2316,3.809272 6.2316,11.14212 0,7.713775 -6.35144,11.999205 -6.2316,4.190199 -17.97578,4.190199 h -10.9053 l 0.11983,-4.380662 h 10.5458 q 7.66966,0 11.86401,-3.047418 4.19435,-3.047417 4.19435,-8.666092 0,-5.237748 -3.83484,-7.99947 -3.83482,-2.761723 -10.78546,-2.761723 h -16.7774 v 44.854174 h 9.46726 v 4.380659 z"
     style="font-style:normal;font-variant:normal;font-weight:normal;font-stretch:normal;font-size:106.829px;line-height:1.25;font-family:Rokkitt;-inkscape-font-specification:'Rokkitt, @wght=349';font-variant-ligatures:normal;font-variant-caps:normal;font-variant-numeric:normal;font-variant-east-asian:normal;font-variation-settings:'wght' 349;fill:#333333;fill-opacity:1;stroke:none;stroke-width:2.67074"
     id="path1095" />
  <path
     d="m 450.05143,73.368777 v -4.380659 h 9.46724 V 24.133944 h -9.46724 v -4.380662 h 57.88201 v 15.808477 h -6.59112 V 24.133944 h -33.31511 v 19.332054 h 21.69077 V 36.799773 H 494.152 V 54.79858 h -4.31418 v -6.856688 h -21.81061 v 21.046226 h 34.15398 V 57.369839 h 6.47127 v 15.998938 z"
     style="font-style:normal;font-variant:normal;font-weight:normal;font-stretch:normal;font-size:106.829px;line-height:1.25;font-family:Rokkitt;-inkscape-font-specification:'Rokkitt, @wght=349';font-variant-ligatures:normal;font-variant-caps:normal;font-variant-numeric:normal;font-variant-east-asian:normal;font-variation-settings:'wght' 349;fill:#333333;fill-opacity:1;stroke:none;stroke-width:2.67074"
     id="path1097" />
  <path
     d="m 520.2693,73.368777 v -4.380659 h 9.46724 V 24.133944 h -9.46724 v -4.380662 h 35.71187 q 7.07048,0 11.98385,1.714172 4.91338,1.61894 7.42999,4.76159 2.63645,3.142649 2.63645,7.618543 0,3.618808 -1.79758,6.666225 -1.67773,2.952186 -5.75225,4.952053 -3.95466,1.999868 -10.66562,2.571258 l 16.05836,20.950995 h 9.94659 v 4.380659 h -15.579 L 551.78683,48.703746 h -9.46724 V 44.13262 h 11.74417 q 6.35145,0 9.70692,-1.523708 3.35548,-1.618941 4.6737,-3.999735 1.31823,-2.380795 1.31823,-4.76159 0,-2.571258 -1.43807,-4.761589 -1.31822,-2.190331 -4.31418,-3.523576 -2.99597,-1.428478 -7.90935,-1.428478 h -17.85593 v 44.854174 h 9.46724 v 4.380659 z"
     style="font-style:normal;font-variant:normal;font-weight:normal;font-stretch:normal;font-size:106.829px;line-height:1.25;font-family:Rokkitt;-inkscape-font-specification:'Rokkitt, @wght=349';font-variant-ligatures:normal;font-variant-caps:normal;font-variant-numeric:normal;font-variant-east-asian:normal;font-variation-settings:'wght' 349;fill:#333333;fill-opacity:1;stroke:none;stroke-width:2.67074"
     id="path1099" />
  <path
     d="m 208.75906,96.542013 h -13.33501 v -2.43417 h 29.36877 v 2.43417 h -13.33501 v 34.607517 h -2.69875 z"
     id="path862"
     style="font-style:normal;font-variant:normal;font-weight:300;font-stretch:normal;font-size:52.9167px;line-height:1.25;font-family:Montserrat;-inkscape-font-specification:'Montserrat, Light';font-variant-ligatures:normal;font-variant-caps:normal;font-variant-numeric:normal;font-variant-east-asian:normal;fill:#333333;fill-opacity:1;stroke:none;stroke-width:1.96373" />
  <path
     d="m 262.27602,120.72494 h -21.48418 l -4.70959,10.42459 h -2.91041 l 17.03917,-37.041687 h 2.69875 l 17.03918,37.041687 h -2.91042 z m -1.00542,-2.27542 -9.73667,-21.378347 -9.68376,21.378347 z"
     id="path864"
     style="font-style:normal;font-variant:normal;font-weight:300;font-stretch:normal;font-size:52.9167px;line-height:1.25;font-family:Montserrat;-inkscape-font-specification:'Montserrat, Light';font-variant-ligatures:normal;font-variant-caps:normal;font-variant-numeric:normal;font-variant-east-asian:normal;fill:#333333;fill-opacity:1;stroke:none;stroke-width:1.96373" />
  <path
     d="m 309.79934,131.14953 -8.83709,-12.38251 q -1.95791,0.26458 -3.59833,0.26458 h -10.58334 v 12.11793 h -2.69875 V 94.107843 h 13.28209 q 6.985,0 10.95375,3.33375 3.96876,3.280837 3.96876,9.154587 0,4.39209 -2.27542,7.40834 -2.2225,2.96333 -6.40292,4.18042 l 9.26042,12.96459 z m -12.43542,-14.49918 q 5.92667,0 9.04875,-2.59292 3.12209,-2.64583 3.12209,-7.46125 0,-4.81542 -3.12209,-7.408337 -3.12208,-2.64583 -9.04875,-2.64583 h -10.58334 v 20.108337 z"
     id="path866"
     style="font-style:normal;font-variant:normal;font-weight:300;font-stretch:normal;font-size:52.9167px;line-height:1.25;font-family:Montserrat;-inkscape-font-specification:'Montserrat, Light';font-variant-ligatures:normal;font-variant-caps:normal;font-variant-numeric:normal;font-variant-east-asian:normal;fill:#333333;fill-opacity:1;stroke:none;stroke-width:1.96373" />
  <path
     d="m 358.73158,112.78743 h 2.59291 v 13.86418 q -2.43416,2.32833 -5.92667,3.54542 -3.43958,1.21708 -7.3025,1.21708 -5.50334,0 -9.94834,-2.43417 -4.39209,-2.43417 -6.93209,-6.72042 -2.48708,-4.28625 -2.48708,-9.63084 0,-5.34458 2.48708,-9.63084 2.54,-4.286247 6.93209,-6.720417 4.445,-2.43416 10.00126,-2.43416 4.07458,0 7.46125,1.32291 3.43959,1.27 5.87375,3.75709 l -1.69333,1.799167 q -2.32833,-2.328337 -5.23875,-3.333757 -2.85751,-1.05833 -6.35001,-1.05833 -4.7625,0 -8.62542,2.11667 -3.81,2.116667 -5.97959,5.873747 -2.16958,3.70417 -2.16958,8.30792 0,4.55084 2.16958,8.30792 2.22251,3.70417 6.03251,5.87376 3.81,2.11667 8.5725,2.11667 6.35001,0 10.53043,-3.38667 z"
     id="path868"
     style="font-style:normal;font-variant:normal;font-weight:300;font-stretch:normal;font-size:52.9167px;line-height:1.25;font-family:Montserrat;-inkscape-font-specification:'Montserrat, Light';font-variant-ligatures:normal;font-variant-caps:normal;font-variant-numeric:normal;font-variant-east-asian:normal;fill:#333333;fill-opacity:1;stroke:none;stroke-width:1.96373" />
  <path
     d="m 410.13683,128.71536 v 2.43417 H 384.57806 V 94.107843 h 24.76502 v 2.43417 h -22.06626 v 14.605007 h 19.73792 v 2.38125 h -19.73792 v 15.18709 z"
     id="path870"
     style="font-style:normal;font-variant:normal;font-weight:300;font-stretch:normal;font-size:52.9167px;line-height:1.25;font-family:Montserrat;-inkscape-font-specification:'Montserrat, Light';font-variant-ligatures:normal;font-variant-caps:normal;font-variant-numeric:normal;font-variant-east-asian:normal;fill:#333333;fill-opacity:1;stroke:none;stroke-width:1.96373" />
  <path
     d="m 438.76063,96.542013 h -13.33501 v -2.43417 h 29.36877 v 2.43417 h -13.33501 v 34.607517 h -2.69875 z"
     id="path872"
     style="font-style:normal;font-variant:normal;font-weight:300;font-stretch:normal;font-size:52.9167px;line-height:1.25;font-family:Montserrat;-inkscape-font-specification:'Montserrat, Light';font-variant-ligatures:normal;font-variant-caps:normal;font-variant-numeric:normal;font-variant-east-asian:normal;fill:#333333;fill-opacity:1;stroke:none;stroke-width:1.96373" />
  <path
     d="m 488.83634,94.107843 h 14.65793 q 5.76792,0 10.21292,2.38125 4.49792,2.38125 6.985,6.614587 2.48709,4.18042 2.48709,9.525 0,5.34459 -2.48709,9.57793 -2.48708,4.18041 -6.985,6.56167 -4.445,2.38125 -10.21292,2.38125 h -14.65793 z m 14.44626,34.607517 q 5.13292,0 9.04875,-2.01084 3.91584,-2.06375 6.03251,-5.715 2.11667,-3.65125 2.11667,-8.36084 0,-4.70958 -2.11667,-8.36084 -2.11667,-3.65125 -6.03251,-5.662077 -3.91583,-2.06375 -9.04875,-2.06375 h -11.74751 v 32.173347 z"
     id="path874"
     style="font-style:normal;font-variant:normal;font-weight:300;font-stretch:normal;font-size:52.9167px;line-height:1.25;font-family:Montserrat;-inkscape-font-specification:'Montserrat, Light';font-variant-ligatures:normal;font-variant-caps:normal;font-variant-numeric:normal;font-variant-east-asian:normal;fill:#333333;fill-opacity:1;stroke:none;stroke-width:1.96373" />
  <path
     d="m 537.84632,94.107843 h 2.69875 v 37.041687 h -2.69875 z"
     id="path877"
     style="font-style:normal;font-variant:normal;font-weight:300;font-stretch:normal;font-size:52.9167px;line-height:1.25;font-family:Montserrat;-inkscape-font-specification:'Montserrat, Light';font-variant-ligatures:normal;font-variant-caps:normal;font-variant-numeric:normal;font-variant-east-asian:normal;fill:#333333;fill-opacity:1;stroke:none;stroke-width:1.96373" />
  <path
     d="m 572.82012,118.3966 v 12.75293 h -2.69875 V 118.3966 L 555.19886,94.107843 h 2.96333 l 13.38793,21.801677 13.38792,-21.801677 h 2.80459 z"
     id="path879"
     style="font-style:normal;font-variant:normal;font-weight:300;font-stretch:normal;font-size:52.9167px;line-height:1.25;font-family:Montserrat;-inkscape-font-specification:'Montserrat, Light';font-variant-ligatures:normal;font-variant-caps:normal;font-variant-numeric:normal;font-variant-east-asian:normal;fill:#333333;fill-opacity:1;stroke:none;stroke-width:1.96373" />
  <path
     d="M 193.57197,82.759263 H 589.5947 v 2.64583 H 193.57197 Z"
     style="fill:#333333;fill-opacity:1;stroke:none;stroke-width:5.03166"
     id="rect934" />
</svg>
