<?xml version="1.0" encoding="UTF-8" standalone="no"?>
<svg
   xmlns:dc="http://purl.org/dc/elements/1.1/"
   xmlns:cc="http://creativecommons.org/ns#"
   xmlns:rdf="http://www.w3.org/1999/02/22-rdf-syntax-ns#"
   xmlns:svg="http://www.w3.org/2000/svg"
   xmlns="http://www.w3.org/2000/svg"
   xmlns:sodipodi="http://sodipodi.sourceforge.net/DTD/sodipodi-0.dtd"
   xmlns:inkscape="http://www.inkscape.org/namespaces/inkscape"
   sodipodi:docname="social.svg"
   inkscape:version="1.0 (4035a4fb49, 2020-05-01)"
   id="svg8"
   version="1.1"
   viewBox="0 0 210 297"
   height="297mm"
   width="210mm">
  <defs
     id="defs2" />
  <sodipodi:namedview
     inkscape:window-maximized="1"
     inkscape:window-y="-9"
     inkscape:window-x="-9"
     inkscape:window-height="1001"
     inkscape:window-width="1920"
     showgrid="false"
     inkscape:document-rotation="0"
     inkscape:current-layer="layer1"
     inkscape:document-units="mm"
     inkscape:cy="157.36208"
     inkscape:cx="305.60541"
     inkscape:zoom="2.4364078"
     inkscape:pageshadow="2"
     inkscape:pageopacity="0.0"
     borderopacity="1.0"
     bordercolor="#666666"
     pagecolor="#ffffff"
     id="base" />
  <metadata
     id="metadata5">
    <rdf:RDF>
      <cc:Work
         rdf:about="">
        <dc:format>image/svg+xml</dc:format>
        <dc:type
           rdf:resource="http://purl.org/dc/dcmitype/StillImage" />
        <dc:title></dc:title>
      </cc:Work>
    </rdf:RDF>
  </metadata>
  <g
     id="layer1"
     inkscape:groupmode="layer"
     inkscape:label="Layer 1">
    <path
       id="path927"
       d="M 122.145,74.876759 C 94.884772,72.446846 81.425368,41.413191 98.418354,20.169772 110.69419,4.8234102 133.84065,3.422262 147.98714,17.169173 c 17.2933,16.804826 11.80822,45.843181 -10.42242,55.17699 -4.61643,1.938271 -10.75779,2.946147 -15.41972,2.530596 z"
       style="fill:#000000;stroke-width:0.0840743" />
    <g
       transform="translate(1.303148,-121.19277)"
       id="g911">
      <path
         id="path905"
         style="fill:#000000;fill-opacity:1;stroke-width:0.264999;stroke-linejoin:round"
         d="m 76.94231,162.33139 a 34.094196,34.094196 0 0 1 -34.094196,34.0942 34.094196,34.094196 0 0 1 -34.0941963,-34.0942 34.094196,34.094196 0 0 1 34.0941963,-34.0942 34.094196,34.094196 0 0 1 34.094196,34.0942 z" />
      <path
         id="path899"
         style="fill:#ffffff;fill-opacity:1;stroke-width:0.264583"
         d="m 43.089358,139.08195 c -6.207947,0 -12.415826,0.18457 -13.614672,0.55449 -4.597057,1.41848 -7.251435,4.03562 -8.764839,8.64185 -0.705617,2.14763 -0.89998,23.02773 -0.24443,26.263 1.340265,6.61447 5.562263,9.99812 13.098942,10.49806 7.105745,0.47136 20.896484,0.0854 23.283333,-0.65164 4.516479,-1.39468 7.219809,-4.12779 8.641849,-8.73641 0.739842,-2.39769 0.739842,-24.83166 0,-27.22935 -1.437129,-4.65752 -4.127989,-7.34838 -8.78551,-8.78551 -1.198843,-0.36992 -7.406725,-0.55449 -13.614673,-0.55449 z m 0,4.30155 c 13.080252,0 13.485633,0.0531 15.761311,2.0562 2.761531,2.4308 3.024106,3.87175 3.024106,16.59692 0,15.02048 -0.903449,17.32075 -7.266739,18.49706 -0.970801,0.17951 -5.271854,0.27642 -11.368815,0.25632 -18.887427,-0.0621 -18.802987,0.0213 -18.802987,-18.62108 0,-13.76572 0.0035,-13.78869 2.500106,-16.28531 2.49343,-2.49315 2.536872,-2.50011 16.153018,-2.50011 z m 12.369271,3.45457 a 2.8063301,2.8063301 0 0 0 -2.806546,2.80655 2.8063301,2.8063301 0 0 0 2.806546,2.80654 2.8063301,2.8063301 0 0 0 2.806031,-2.80654 2.8063301,2.8063301 0 0 0 -2.806031,-2.80655 z m -12.594063,3.36517 c -2.873182,0.04 -5.781609,1.13642 -8.127151,3.48195 -6.503667,6.50367 -3.362695,17.71176 5.573819,19.89026 8.09894,1.97433 15.874849,-5.22488 14.473017,-13.3997 -1.076235,-6.27615 -6.434521,-10.04893 -11.919685,-9.97251 z m 0.209806,4.19716 c 4.65,-0.04 8.924984,4.43221 7.267258,10.01437 -0.59051,1.98847 -2.88616,4.28412 -4.874638,4.87464 -7.765854,2.30621 -13.383448,-6.87268 -7.690488,-12.56564 1.601277,-1.60128 3.478305,-2.30771 5.297868,-2.32337 z" />
    </g>
    <path
       id="path931"
       d="m 127.54643,54.436054 0.0214,-10.067919 3.21584,-0.02202 c 1.76872,-0.01205 3.21585,-0.04053 3.21585,-0.06321 0,-0.02268 0.227,-1.759361 0.50444,-3.859355 0.27745,-2.100004 0.50445,-3.878108 0.50445,-3.951362 0,-0.119525 -0.38349,-0.133174 -3.74131,-0.133174 h -3.74132 l 6.4e-4,-2.795479 c 9.5e-4,-4.533837 0.1958,-5.372248 1.40593,-6.051927 0.83623,-0.46968 1.08569,-0.503084 4.07929,-0.54626 l 2.75344,-0.03971 v -3.516935 c 0,-3.277056 -0.01,-3.519871 -0.14713,-3.559895 -1.02351,-0.298802 -7.36032,-0.377249 -8.59321,-0.106379 -4.13133,0.907663 -6.73035,3.592468 -7.49922,7.746738 -0.1516,0.819116 -0.1761,1.378863 -0.21431,4.897336 l -0.0432,3.972522 h -3.35375 -3.35376 v 3.993527 3.993537 h 3.36298 3.36297 v 10.08893 10.088942 h 4.11931 4.11932 z"
       style="fill:#ffffff;stroke-width:0.0840743;fill-opacity:1" />
  </g>
</svg>
